<?xml version="1.0" encoding="UTF-8" standalone="no"?>
<!-- Created with Inkscape (http://www.inkscape.org/) -->

<svg
   xmlns:dc="http://purl.org/dc/elements/1.1/"
   xmlns:cc="http://creativecommons.org/ns#"
   xmlns:rdf="http://www.w3.org/1999/02/22-rdf-syntax-ns#"
   xmlns:svg="http://www.w3.org/2000/svg"
   xmlns="http://www.w3.org/2000/svg"
   xmlns:sodipodi="http://sodipodi.sourceforge.net/DTD/sodipodi-0.dtd"
   xmlns:inkscape="http://www.inkscape.org/namespaces/inkscape"
   width="251.97127mm"
   height="85.734192mm"
   viewBox="0 0 892.81158 303.78257"
   id="svg2"
   version="1.1"
   inkscape:version="0.91 r13725"
   sodipodi:docname="ferrarilamiere.svg">
  <defs
     id="defs4" />
  <sodipodi:namedview
     id="base"
     pagecolor="#ffffff"
     bordercolor="#666666"
     borderopacity="1.0"
     inkscape:pageopacity="0.0"
     inkscape:pageshadow="2"
     inkscape:zoom="0.49497475"
     inkscape:cx="-59.586454"
     inkscape:cy="56.655602"
     inkscape:document-units="px"
     inkscape:current-layer="g4271"
     showgrid="false"
     showguides="false"
     inkscape:window-width="1535"
     inkscape:window-height="876"
     inkscape:window-x="65"
     inkscape:window-y="24"
     inkscape:window-maximized="1"
     fit-margin-top="10"
     fit-margin-left="14"
     fit-margin-right="14"
     fit-margin-bottom="10" />
  <metadata
     id="metadata7">
    <rdf:RDF>
      <cc:Work
         rdf:about="">
        <dc:format>image/svg+xml</dc:format>
        <dc:type
           rdf:resource="http://purl.org/dc/dcmitype/StillImage" />
        <dc:title></dc:title>
      </cc:Work>
    </rdf:RDF>
  </metadata>
  <g
     inkscape:label="Livello 1"
     inkscape:groupmode="layer"
     id="layer1"
     transform="translate(75.53306,-374.12296)">
    <g
       id="g4271">
      <path
         style="fill:#ffe80d;fill-opacity:1"
         d="m 171.42224,616.73552 c -20.60054,-3.62244 -54.2231,-13.4713 -72.410995,-21.21094 -4.769269,-2.0295 -1.868149,-5.01317 -5.901452,-5.01317 -5.221218,0 -10.169691,-2.08972 -10.169691,-4.23252 0,-1.94943 -3.131941,1.08519 -13.002232,-4.06988 C 15.040076,553.53689 -20.716682,515.77136 -25.408189,481.50654 -6.7229774,370.63193 167.34678,413.50732 234.10672,445.96059 l 10.4093,5.22046 73.14061,0 c 70.89771,0 73.14061,0.0539 73.14061,1.75832 0,2.39722 -8.90876,21.74424 -10.46763,22.7324 -0.68812,0.43619 -22.34487,0.81015 -48.12612,0.83102 l -46.875,0.038 8.43687,7.71078 c 17.96525,16.41913 27.96264,28.72836 35.19672,43.33577 5.85043,11.81348 7.46016,18.20683 7.46016,29.62946 0,11.10581 -3.69036,17.88209 -9.02392,25.86917 -2.05771,3.08146 -5.25654,5.4306 -5.25654,5.99197 0,0.56138 -0.89227,1.49821 -1.98282,2.08185 -1.09055,0.58365 -3.15671,3.90816 -6.13474,6.30751 -18.29361,11.67467 -37.39232,20.17871 -58.93301,21.68254 -16.82655,-0.11202 -18.15792,-0.94777 -29.84368,1.8556 -0.27414,-0.44356 -3.02926,0.80066 -6.12248,0.80066 l -5.62405,0 c -24.74624,-3.80567 -31.8323,-4.06776 -42.07876,-5.07058 z"
         id="path4277"
         inkscape:connector-curvature="0"
         sodipodi:nodetypes="csssscccsssscsssssscccscc" />
      <path
         style="fill:#ce404f"
         d="M 171.42224,616.73552 C 150.8217,613.11308 117.19914,603.26422 99.011245,595.52458 87.153449,591.47613 78.330833,586.7839 69.93787,582.20901 15.040076,553.53689 -20.716682,515.77136 -25.408189,481.50654 c -4.644452,-33.92115 22.1539237,-60.0511 70.53056,-68.77132 54.254555,-9.77975 129.672879,3.47955 188.984349,33.22537 l 10.4093,5.22046 c 21.42814,14.26729 22.33401,15.23054 40.81247,25.35974 l 8.43687,7.71078 c 17.96525,16.41913 27.96264,28.72836 35.19672,43.33577 5.85043,11.81348 7.46016,18.20683 7.46016,29.62946 0.52028,16.24359 -3.26228,20.75107 -12.38642,33.37637 -21.49393,21.24175 -41.75481,24.75901 -56.52684,27.68974 l -11.07848,2.11693 c -11.40044,0.75306 -21.26453,1.63187 -31.18297,2.21274 -5.81105,-0.55002 -7.35083,-0.80648 -11.74653,-0.80648 -19.43142,-1.84712 -18.66485,-0.90848 -42.07876,-5.07058 z m -61.42705,-25.35358 c -0.30036,2.29161 49.73541,15.71211 71.73955,19.15703 22.88219,3.58239 46.14281,4.59062 64.89134,2.81271 14.39759,-1.36531 24.74616,-3.32485 35.19507,-6.66429 14.32147,-4.5771 22.55249,-10.04644 31.37245,-17.271 11.23146,-13.01666 13.10637,-17.64899 14.51727,-28.0957 1.37738,-10.19847 -2.49747,-22.06538 -6.38856,-30.20497 -7.34261,-15.35965 -24.77344,-35.13078 -43.24072,-49.04629 l -7.39974,-5.57588 -24.08701,-14.49814 -22.62796,-11.70098 c -6.96428,-3.89236 -30.79808,-13.85092 -53.01339,-20.1831 -29.69122,-8.46308 -58.29517,-12.65629 -86.436351,-12.67118 -76.5682896,-0.0405 -116.033461,32.20822 -96.722993,79.03659 6.3006246,15.27918 23.371631,35.9278 41.587457,50.30304 13.106648,10.34327 30.922508,21.61597 48.759392,30.8517 l 18.031131,9.66206 z"
         id="path4275"
         inkscape:connector-curvature="0"
         sodipodi:nodetypes="cccsssccssccccccccssscasscccssssccc" />
      <path
         style="fill:#373878"
         d="m 63.609745,640.90216 c 0,-0.84091 1.960901,-5.922 4.357556,-11.29131 4.419694,-9.90156 6.80191,-12.63754 9.240994,-10.61328 1.075509,0.8926 0.752297,2.25413 -1.934934,8.15084 -4.870772,10.68823 -4.920666,10.59518 5.680134,10.59518 6.682697,0 8.90625,0.30427 8.90625,1.21875 0,2.9127 -2.284331,3.46875 -14.25,3.46875 -10.469614,0 -12,-0.19499 -12,-1.52893 z m 30.604294,0.1075 c 0.782184,-2.03831 21.944031,-21.11208 24.535211,-22.11426 4.05888,-1.56984 5.37141,0.24264 7.53549,10.40577 2.68567,12.61264 2.65616,13.12992 -0.74884,13.12992 -2.08848,0 -3.06178,-0.62822 -3.99429,-2.57813 -1.18758,-2.48324 -1.53182,-2.58805 -9.35317,-2.84793 -7.87888,-0.26179 -8.21665,-0.18516 -11.36385,2.57812 -3.470226,3.0469 -7.572004,3.93204 -6.610551,1.42651 z m 24.597421,-8.80277 c 1.46941,-0.93063 0.69473,-7.5883 -0.88297,-7.5883 -0.49982,0 -2.48461,1.47144 -4.41064,3.26988 -2.91728,2.72403 -3.26711,3.42588 -2.0956,4.20439 1.73629,1.15385 5.65203,1.21428 7.38921,0.11403 z m 26.57956,9.05232 c -0.52157,-0.64453 -1.91626,-5.73975 -3.09931,-11.32274 -1.84188,-8.69209 -1.95787,-10.27306 -0.8071,-11.00126 3.47166,-2.19686 6.02857,0.14484 6.92275,6.34006 0.9794,6.78565 1.55953,8.71832 2.61698,8.71832 0.52875,0 4.04004,-2.92446 7.80289,-6.4988 3.76286,-3.57434 7.90659,-7.19664 9.20831,-8.04956 2.24401,-1.47034 4.3242,-1.2603 4.3242,0.43662 0,1.23578 -23.4362,22.54924 -24.79506,22.54924 -0.67394,0 -1.65209,-0.52734 -2.17366,-1.17188 z m 29.54685,0.52563 c -1.01707,-0.26578 -1.64063,-1.32998 -1.64063,-2.79997 0,-3.00593 6.61475,-17.18617 8.88814,-19.05378 1.90278,-1.56316 21.25746,-2.58398 27.34372,-1.44219 3.16992,0.59467 3.33924,0.80713 2.88113,3.61513 -0.26769,1.64082 -2.11122,6.35831 -4.09672,10.48331 -3.11208,6.46551 -4.0626,7.65434 -6.89127,8.61896 -3.12301,1.065 -22.96432,1.49843 -26.48437,0.57854 z m 27.92062,-10.79787 c 1.78091,-3.71614 2.88739,-7.10724 2.45886,-7.53577 -0.42854,-0.42854 -4.96071,-0.65759 -10.07151,-0.50901 l -9.29235,0.27015 -3.07098,6.37864 c -1.68904,3.50825 -2.8243,6.77778 -2.5228,7.26562 0.3015,0.48785 4.75852,0.88699 9.90448,0.88699 l 9.35627,0 z m 15.43875,10.51629 c 0,-2.0982 8.67465,-21.13521 10.17678,-22.3335 1.96005,-1.5636 24.80062,-1.20557 26.41616,0.41407 0.78364,0.78564 0.51886,2.30834 -1.02582,5.89903 -2.33954,5.43839 -4.76049,7.57323 -8.58822,7.57323 -3.2586,0 -3.2294,0.51306 0.29341,5.15625 l 2.84514,3.75 -3.5453,0.30321 c -3.24667,0.27767 -3.8905,-0.0974 -7.64313,-4.45313 -5.72821,-6.64871 -8.94217,-6.30438 -12.48333,1.33742 -0.90664,1.95655 -2.08579,2.90278 -3.87449,3.10914 -1.45242,0.16757 -2.5712,-0.16126 -2.5712,-0.75572 z m 28.1836,-14.13076 c 3.20407,-3.20408 1.8553,-4.13666 -6.40936,-4.43159 -6.93419,-0.24747 -7.69996,-0.0961 -8.6686,1.71388 -1.96736,3.67602 -0.59344,4.6513 6.55245,4.6513 5.4085,0 6.93904,-0.34713 8.52551,-1.93359 z m 8.04068,13.65024 c 0.57986,-1.51105 19.96068,-19.45403 23.56112,-21.81313 1.64732,-1.07936 2.68346,-1.1839 4.32431,-0.43629 1.80877,0.82413 2.48513,2.51994 4.18035,10.48117 2.69643,12.66321 2.66764,13.1766 -0.7389,13.1766 -2.08848,0 -3.06178,-0.62822 -3.99429,-2.57812 -1.18758,-2.48325 -1.53182,-2.58806 -9.35317,-2.84794 -7.87888,-0.26179 -8.21665,-0.18516 -11.36385,2.57812 -3.45906,3.03709 -7.57203,3.93209 -6.61557,1.43959 z m 24.60244,-8.81585 c 1.61591,-1.02343 0.61751,-7.5883 -1.15404,-7.5883 -0.64892,0 -2.62884,1.49497 -4.39981,3.32214 -2.67045,2.75521 -2.98182,3.4727 -1.82453,4.20439 1.75332,1.10855 5.6738,1.14137 7.37838,0.0618 z m 16.21392,8.70252 c 0.16671,-0.83691 5.33136,-4.73925 11.477,-8.67187 6.14563,-3.93261 11.34876,-7.67754 11.5625,-8.32207 0.28435,-0.85747 -1.25243,-1.17188 -5.72793,-1.17188 -6.5566,0 -8.06018,-0.8456 -5.70011,-3.20567 1.18346,-1.18345 3.68642,-1.47894 12.4305,-1.46748 10.5341,0.0138 14.12,0.70063 13.01267,2.49232 -0.28597,0.46271 -5.60086,3.99035 -11.81085,7.83919 -6.20999,3.84884 -11.30349,7.52523 -11.3189,8.16976 -0.0202,0.84218 2.08204,1.17188 7.47198,1.17188 5.52885,0 7.5,0.32032 7.5,1.21875 0,2.97124 -2.25538,3.46875 -15.72498,3.46875 -11.93156,0 -13.44027,-0.17429 -13.17188,-1.52168 z m 39.20936,0.42329 c 0,-2.19817 9.57496,-22.21524 10.86283,-22.70943 1.52392,-0.5848 4.13717,0.22829 4.13717,1.28722 0,1.10326 -8.48891,20.02308 -9.5787,21.34873 -1.21846,1.48215 -5.4213,1.53913 -5.4213,0.0735 z m 22.73438,0.17758 c -1.16016,-0.49157 -2.10938,-1.54707 -2.10938,-2.34554 0,-0.79848 1.85474,-5.42081 4.12164,-10.27183 3.86447,-8.26974 4.34705,-8.88265 7.73437,-9.82321 4.59091,-1.27476 22.84618,-1.31805 26.14981,-0.062 3.00126,1.14108 2.86049,2.11555 -1.76725,12.2345 -4.82077,10.54104 -5.06898,10.67892 -19.6951,10.941 -6.7786,0.12148 -13.27393,-0.18134 -14.43409,-0.67292 z m 27.75368,-10.49546 c 1.72935,-3.443 2.86461,-6.71253 2.52279,-7.26562 -0.37525,-0.60715 -4.32982,-1.00561 -9.98038,-1.00561 l -9.35889,0 -2.80927,6.26135 c -1.54511,3.44374 -2.58949,6.83411 -2.32087,7.53415 0.37541,0.97826 2.60737,1.21065 9.64537,1.00427 l 9.15694,-0.26852 z m 16.07444,9.58 c 0,-3.07444 8.9668,-21.24399 10.83852,-21.96222 1.34203,-0.51499 3.36843,1.03243 9.08983,6.94123 4.04953,4.18218 7.80211,7.45753 8.33906,7.27854 0.53694,-0.17898 2.11933,-3.01828 3.51641,-6.30956 2.64889,-6.2403 5.30036,-8.96503 7.43824,-7.64375 1.7763,1.09782 -8.05354,22.90284 -10.54067,23.38181 -1.20222,0.23153 -3.98888,-2.06307 -8.9825,-7.39637 -4.32179,-4.61577 -7.67061,-7.46566 -8.30903,-7.0711 -0.5882,0.36353 -2.52034,3.80123 -4.29365,7.63932 -2.48838,5.38579 -3.66603,6.97837 -5.1602,6.97837 -1.29739,0 -1.93601,-0.60571 -1.93601,-1.83627 z m 45,0.88617 c 0,-1.77443 9.37821,-21.90986 10.55177,-22.65512 1.6218,-1.02989 23.36249,-0.93375 25.01295,0.11063 1.10291,0.69788 1.12898,1.11315 0.14437,2.29952 -0.92469,1.11419 -3.61138,1.50874 -11.65847,1.71209 -10.03808,0.25365 -10.46886,0.34871 -10.75644,2.37361 -0.27076,1.90642 0.0901,2.11075 3.75,2.12372 5.25993,0.0187 7.21265,1.15005 5.51512,3.19544 -0.86039,1.03672 -2.86096,1.47771 -6.7036,1.47771 -4.5364,0 -5.65137,0.3254 -6.49106,1.89438 -0.55762,1.0419 -0.7585,2.30752 -0.44641,2.8125 0.31209,0.50496 4.76129,0.91812 9.88711,0.91812 9.46906,0 11.06386,0.69331 8.19466,3.5625 -1.43525,1.43526 -27,1.60087 -27,0.1749 z m 60,-0.29402 c 0,-2.12793 8.58344,-20.72252 10.13648,-21.959 1.73774,-1.38354 2.0957,-1.41159 3.84922,-0.30168 1.09776,0.69483 0.71106,2.22932 -2.21872,8.80448 -1.95149,4.37965 -3.26314,8.42421 -2.91474,8.98791 0.38188,0.61789 3.96217,1.02491 9.0156,1.02491 8.26557,0 8.93713,0.27545 7.81311,3.20457 -0.4797,1.25009 -2.54045,1.48293 -13.125,1.48293 -9.80861,0 -12.55595,-0.27222 -12.55595,-1.24412 z m 30.56021,-0.0624 c 0.68589,-1.7874 22.65994,-21.49152 24.93699,-22.36098 3.41433,-1.30372 5.20042,0.77446 6.83783,7.95614 0.85336,3.74281 1.79053,8.80901 2.08261,11.25823 0.531,4.4528 0.53084,4.45312 -2.32034,4.45312 -2.32531,0 -3.03225,-0.51888 -3.83182,-2.8125 l -0.98044,-2.8125 -8.25189,0.0381 c -7.76129,0.0358 -8.44487,0.20304 -11.49774,2.8125 -3.39469,2.90163 -7.88826,3.84728 -6.9752,1.46789 z m 24.58746,-8.88428 c 1.41538,-0.89737 1.16788,-6.84233 -0.30392,-7.30025 -0.51562,-0.16042 -2.625,1.1675 -4.6875,2.95093 -3.11209,2.69104 -3.51078,3.40371 -2.34375,4.18951 1.70821,1.15021 5.63804,1.23582 7.33517,0.15981 z m 20.35419,9.30685 c -0.76677,-1.24066 8.76114,-22.30998 10.36775,-22.92648 2.56061,-0.98261 4.36335,0.71736 7.00541,6.60601 1.46936,3.27493 3.25769,5.95441 3.97406,5.95441 0.71637,0 4.8473,-2.66385 9.17983,-5.91966 8.7761,-6.59506 10.2968,-7.37986 12.11839,-6.25406 1.01191,0.6254 0.75861,1.9402 -1.29274,6.71014 -5.40912,12.57767 -7.56312,16.23451 -9.74518,16.54441 -2.75392,0.39112 -2.7071,-1.5578 0.19865,-8.26833 1.22799,-2.83593 1.86699,-5.28917 1.42,-5.45162 -0.447,-0.16245 -3.93201,2.0524 -7.74446,4.92188 -3.81245,2.86948 -7.35245,5.21724 -7.86666,5.21724 -0.51421,0 -2.06387,-2.61646 -3.44369,-5.81436 -2.88817,-6.69368 -3.43743,-6.53582 -7.18301,2.06436 -1.23512,2.83594 -2.6336,5.6836 -3.10773,6.32813 -1.01812,1.38402 -3.1074,1.53904 -3.88062,0.28793 z m 48.24814,-0.36013 c 0,-2.12793 8.58344,-20.72252 10.13648,-21.959 1.73764,-1.38346 2.09574,-1.41156 3.84863,-0.30205 1.09087,0.69048 0.52255,2.6608 -3.17317,11.00127 -2.47612,5.58808 -4.91874,10.68749 -5.42803,11.33203 -1.23289,1.56026 -5.38391,1.50456 -5.38391,-0.0723 z m 20.58136,-1.334 c 1.71243,-5.78638 7.82794,-18.62393 9.60196,-20.15625 1.56733,-1.35379 3.75279,-1.64063 12.50012,-1.64063 11.23267,0 13.56656,0.4032 13.56656,2.34375 0,1.89669 -2.30356,2.34375 -12.07667,2.34375 -9.0315,0 -11.36083,0.7112 -11.36083,3.46875 0,0.83851 1.47164,1.21875 4.71692,1.21875 3.46016,0 4.87038,0.39989 5.29287,1.50086 0.84665,2.20635 -1.36849,3.15612 -7.39868,3.17229 -4.40775,0.0118 -5.53738,0.35021 -6.37147,1.90873 -0.55762,1.0419 -0.7585,2.30752 -0.44641,2.8125 0.31209,0.50496 4.76129,0.91812 9.88711,0.91812 5.12581,0 9.31966,0.38737 9.31966,0.86082 0,3.60806 -0.83214,3.82668 -14.5661,3.82668 l -13.42801,0 z m 39.41864,0.80046 c 0,-2.88781 9.00821,-21.31849 10.74549,-21.98514 2.48682,-0.95428 20.72675,-0.71893 23.41223,0.3021 2.90593,1.10482 2.99488,2.53827 0.48841,7.87053 -1.89198,4.02503 -4.86621,6.21517 -8.44023,6.21517 -2.6112,0 -2.2728,1.59441 1.16761,5.50123 l 2.9985,3.40502 -3.70162,0.31282 c -3.43261,0.29009 -4.01319,-0.0393 -7.98845,-4.53145 -3.59537,-4.0629 -4.72836,-4.79382 -7.02432,-4.53156 -1.96857,0.22486 -3.10359,1.10269 -4.0408,3.12519 -0.71682,1.54688 -1.94547,3.55078 -2.73036,4.45313 -1.92765,2.21612 -4.88646,2.13314 -4.88646,-0.13704 z m 27.58929,-12.82056 c 0.81027,-0.81026 1.47321,-2.28682 1.47321,-3.28125 0,-1.6346 -0.71732,-1.80803 -7.47839,-1.80803 -6.90672,0 -7.59371,0.17601 -8.98705,2.30252 -0.82977,1.26639 -1.23648,2.74295 -0.90379,3.28125 1.00962,1.63359 14.17757,1.22396 15.89602,-0.49449 z m 14.55457,12.0201 c 1.71243,-5.78638 7.82794,-18.62393 9.60196,-20.15625 1.56733,-1.35379 3.75279,-1.64063 12.50012,-1.64063 11.23267,0 13.56656,0.4032 13.56656,2.34375 0,1.89669 -2.30356,2.34375 -12.07667,2.34375 -9.0315,0 -11.36083,0.7112 -11.36083,3.46875 0,0.83851 1.47164,1.21875 4.71692,1.21875 3.46016,0 4.87038,0.39989 5.29287,1.50086 0.84665,2.20635 -1.36849,3.15612 -7.39868,3.17229 -4.40775,0.0118 -5.53738,0.35021 -6.37147,1.90873 -0.55762,1.0419 -0.7585,2.30752 -0.44641,2.8125 0.31209,0.50496 4.76129,0.91812 9.88711,0.91812 7.0219,0 9.31966,0.30048 9.31966,1.21875 0,2.9486 -2.2676,3.46875 -15.12205,3.46875 l -12.87206,0 z M 81.743264,591.29043 c -0.308466,-0.80385 1.776065,-6.38614 4.665187,-12.49317 7.762716,-16.40884 11.888794,-26.01881 11.888794,-27.68992 0,-1.97468 -5.562703,-1.97274 -11.240222,0.004 -2.814769,0.97998 -5.571722,1.26101 -8.322984,0.84844 -7.964494,-1.19435 -8.80501,-2.52264 -2.587032,-4.08834 2.254866,-0.56778 6.790022,-2.30504 10.078125,-3.86056 3.729675,-1.76442 7.565194,-2.85329 10.197113,-2.89486 2.320313,-0.0367 5.017855,-0.38024 5.994545,-0.76354 2.31351,-0.90794 10.43735,-18.73941 9.13212,-20.04463 -1.48927,-1.48928 -8.44356,0.0341 -16.532915,3.62164 -15.347016,6.80622 -19.44405,8.09747 -25.78125,8.12533 -10.779305,0.0474 -14.193983,-2.44572 -4.921875,-3.59356 7.427831,-0.91952 11.332341,-2.43361 20.399925,-7.9107 11.254481,-6.79802 16.825865,-9.1078 25.303205,-10.49015 l 7.5,-1.22298 3.02474,-6.09375 c 3.36955,-6.78843 3.73519,-8.91876 1.66698,-9.7124 -2.73369,-1.04902 -11.99694,1.45691 -22.783609,6.16351 -13.817841,6.02922 -21.123966,7.167 -36.02029,5.60947 -12.541139,-1.31129 -14.747853,-2.60694 -5.755413,-3.37924 22.045284,-1.89331 29.04224,-3.6809 39.476437,-10.08547 8.789055,-5.39477 15.310695,-7.54494 24.496955,-8.07659 l 7.8558,-0.45465 3.98609,-8.52675 c 2.19235,-4.68971 3.79687,-9.01987 3.56559,-9.62256 -0.60221,-1.56934 -3.95182,-2.13298 -16.78939,-2.82515 -15.55219,-0.83854 -20.943786,0.79721 -33.928245,10.29342 -13.514175,9.88362 -16.580878,11.17862 -27.648132,11.67521 -8.488141,0.38086 -27.914743,-1.04174 -31.143175,-2.28061 -3.094551,-1.18749 0.03248,-2.21793 6.84786,-2.25655 3.965664,-0.0225 11.545053,-0.4 16.843089,-0.83894 12.006879,-0.99462 16.04181,-2.85065 28.771642,-13.2346 17.110069,-13.95698 22.383581,-15.54466 47.845571,-14.40473 9.79687,0.4386 72.7494,0.64017 139.89452,0.44792 111.36699,-0.31886 122.13267,-0.21757 122.65901,1.15406 0.32835,0.85566 -1.54102,6.17942 -4.33807,12.3544 -4.0044,8.8404 -5.34914,10.95976 -7.25797,11.43884 -1.2886,0.32342 -44.22053,0.27888 -95.40428,-0.099 l -93.06136,-0.68701 -1.40455,2.1894 c -0.7725,1.20418 -4.67737,9.50118 -8.67748,18.43778 -5.94436,13.28025 -7.02855,16.40303 -5.93513,17.09502 0.75174,0.47574 22.9783,0.85294 50.7356,0.86101 27.16879,0.008 49.57917,0.33076 49.80085,0.71748 0.42669,0.74436 -8.24803,20.50443 -9.87755,22.5 -0.74396,0.91106 -12.15849,1.17187 -51.28796,1.17187 -38.80005,0 -50.69176,0.26848 -51.90559,1.17188 -0.866,0.64453 -6.69496,12.5625 -12.95325,26.48437 -6.25828,13.92188 -11.85301,25.62245 -12.43274,26.00127 -0.57973,0.37883 -12.98526,0.69523 -27.56785,0.70313 -23.092133,0.0125 -26.585764,-0.17319 -27.071436,-1.43881 z m 75.992426,0.14313 c -0.58208,-1.5169 13.11811,-32.43691 14.86338,-33.54523 1.58478,-1.00638 36.46724,-0.94676 38.06412,0.0651 0.79818,0.50574 1.03662,1.54832 0.63995,2.79813 -0.61006,1.92214 -1.16467,1.99256 -15.80345,2.0064 -8.34415,0.008 -15.63538,0.3243 -16.20273,0.70313 -1.39462,0.93122 -3.18722,4.44762 -3.18722,6.25214 0,1.20894 1.31326,1.46788 7.44467,1.46788 7.72518,0 9.02151,0.60739 8.02142,3.75839 -0.53442,1.68382 -1.43547,1.86802 -9.20114,1.88096 -4.73478,0.008 -9.11968,0.3391 -9.7442,0.73599 -1.47481,0.93724 -4.12247,7.27294 -3.35857,8.03683 0.32331,0.32331 7.03168,0.58783 14.9075,0.58783 8.93731,0 14.54702,0.36788 14.92456,0.97873 0.33269,0.5383 -0.074,2.01486 -0.90379,3.28125 l -1.50867,2.30253 -19.22656,0 c -15.59787,0 -19.32144,-0.24725 -19.72927,-1.31003 z m 59.17573,0.40558 c -0.75657,-1.22416 13.19602,-32.07283 15.17377,-33.54867 1.12751,-0.84137 6.0809,-1.1406 17.56311,-1.06096 24.08535,0.16705 24.88158,0.56307 20.65266,10.272 -3.69175,8.47566 -5.76004,10.38714 -12.18222,11.25865 -2.91964,0.39621 -5.53582,0.94775 -5.81373,1.22567 -0.27791,0.2779 1.66209,2.87675 4.31112,5.77521 2.64903,2.89846 4.57826,5.65527 4.28719,6.12624 -0.29108,0.47097 -2.56697,0.85631 -5.05754,0.85631 -5.0565,0 -6.23269,-0.7789 -11.82443,-7.83045 -4.01857,-5.06768 -6.93359,-6.59584 -10.91408,-5.72157 -2.11612,0.46477 -3.28547,1.79828 -5.58306,6.36684 -1.59846,3.17841 -3.37923,6.08888 -3.95726,6.4677 -1.52266,0.99791 -6.00098,0.8721 -6.65553,-0.18697 z m 39.79101,-18.67677 c 2.64473,-0.73722 6.10956,-6.01299 5.31274,-8.0895 -0.433,-1.12837 -2.76014,-1.39178 -12.29603,-1.39178 l -11.76196,0 -1.85771,3.04688 c -2.12924,3.49221 -2.3867,5.96125 -0.69285,6.64473 1.73983,0.70204 18.62088,0.53531 21.29581,-0.21033 z m 23.82164,18.20833 c -0.6505,-1.69519 12.3361,-31.25057 14.53541,-33.08023 1.0192,-0.8479 6.38455,-1.17188 19.40684,-1.17188 16.19811,0 18.21521,0.17572 20.1679,1.75691 3.67547,2.13591 0.823,4.94406 -0.55409,8.20313 -3.60384,8.52901 -6.66912,11.60246 -11.57159,11.60246 -4.45688,0 -6.71389,0.7439 -6.70425,2.20968 0.004,0.58936 1.90232,2.93295 4.21875,5.20796 5.72945,5.62701 5.52656,6.64486 -1.32455,6.64486 l -5.53627,0 -4.79317,-6.46565 c -4.32971,-5.84043 -5.15144,-6.49981 -8.49821,-6.81897 -5.41865,-0.51675 -6.17688,0.0155 -9.57751,6.72212 -2.75234,5.42815 -3.42334,6.12589 -6.14316,6.388 -2.12303,0.2046 -3.22783,-0.16053 -3.6261,-1.19839 z m 42.38765,-20.47626 c 1.24329,-1.44672 2.26052,-3.66157 2.26052,-4.92187 l 0,-2.29148 -12.19968,0 -12.19968,0 -2.07339,4.26766 c -2.78401,5.73033 -1.93521,6.16812 11.3216,5.83956 10.34135,-0.25632 10.6915,-0.33492 12.89063,-2.89387 z m 10.86366,20.44809 c 0.16671,-0.77057 8.47348,-8.7862 18.45949,-17.8125 16.53836,-14.94893 18.45991,-16.41017 21.5625,-16.39709 1.87337,0.008 3.88579,0.3243 4.47203,0.70313 1.45776,0.94197 8.09456,33.15331 7.04677,34.20109 -0.45468,0.45468 -2.67697,0.69416 -4.93843,0.53219 -3.77684,-0.27052 -4.19802,-0.56176 -5.171,-3.57576 l -1.05925,-3.28125 -12.68194,-0.26027 -12.68195,-0.26026 -4.36269,3.77589 c -3.31006,2.86483 -5.15724,3.77589 -7.65567,3.77589 -2.43189,0 -3.21371,-0.36637 -2.98986,-1.40106 z m 38.72165,-13.56825 c 0.68658,-1.11091 -0.37509,-9.64292 -1.40784,-11.31393 -0.54629,-0.88393 -2.4164,0.25364 -6.92639,4.21319 -3.39793,2.98322 -6.17806,6.00532 -6.17806,6.71579 0,0.98162 1.6749,1.29176 6.97592,1.29176 3.83676,0 7.22813,-0.40807 7.53637,-0.90681 z m 28.61271,13.25518 c 0,-1.71984 12.60291,-30.54075 14.31623,-32.73899 0.67556,-0.86678 5.71081,-1.17188 19.33997,-1.17188 15.16021,0 18.79595,0.2587 20.5102,1.45941 2.72876,1.9113 2.66012,2.54674 -1.12918,10.45369 -3.684,7.68721 -5.88637,9.483 -12.60614,10.27887 -2.64334,0.31305 -4.78781,0.82684 -4.76549,1.14174 0.0223,0.3149 2.10269,2.87461 4.62304,5.68825 2.52034,2.81364 4.37562,5.45036 4.12283,5.85938 -0.25279,0.40901 -2.77517,0.74366 -5.6053,0.74366 -5.6473,0 -6.85221,-0.86129 -12.84675,-9.18305 -2.82845,-3.92652 -3.01855,-4.0199 -7.63317,-3.75 l -4.73249,0.2768 -3.02389,6.32813 c -2.99293,6.26332 -3.06253,6.32812 -6.79688,6.32812 -3.02994,0 -3.77298,-0.33757 -3.77298,-1.71413 z m 42.49982,-19.67551 c 0.84723,-0.93618 1.8091,-3.04556 2.13749,-4.6875 l 0.59707,-2.98536 -12.13105,0 -12.13106,0 -1.57988,3.31306 c -2.88212,6.04386 -2.85233,6.06194 9.99356,6.06194 9.99106,0 11.78407,-0.23273 13.11387,-1.70214 z m 20.71883,20.1583 c -0.54892,-1.43045 13.25117,-32.61662 14.89596,-33.66271 1.575,-1.0017 6.98498,-0.89641 7.63079,0.14852 0.53186,0.86059 -11.40228,28.47055 -14.10667,32.63616 -1.55394,2.39355 -7.59672,3.02368 -8.42008,0.87803 z"
         id="path4273"
         inkscape:connector-curvature="0"
         sodipodi:nodetypes="sssssssssssssssscssscssssssssssssssssssssscssscssssssscssssssscssssssssssscsssccsssssssscssssscssssssssssssscscscscsscscsssssssssscssscssscssssssscsssssssssscssssssssscsssssssssssssscssscccsssssssssscssscssssssscsssssssssssssssssssssscssscscsscssscssssssscssssssscssssssscssssssscssssssssscscccscscsssscssscccsccssssscscssssssssscssssssccscsscssssssscccsssssccssscccssssssssssssssscssssscssssscccssssscss" />
    </g>
  </g>
</svg>
