<?xml version="1.0" encoding="UTF-8" standalone="no"?>
<!-- Created with Inkscape (http://www.inkscape.org/) -->

<svg
   xmlns:dc="http://purl.org/dc/elements/1.1/"
   xmlns:cc="http://creativecommons.org/ns#"
   xmlns:rdf="http://www.w3.org/1999/02/22-rdf-syntax-ns#"
   xmlns:svg="http://www.w3.org/2000/svg"
   xmlns="http://www.w3.org/2000/svg"
   xmlns:sodipodi="http://sodipodi.sourceforge.net/DTD/sodipodi-0.dtd"
   xmlns:inkscape="http://www.inkscape.org/namespaces/inkscape"
   id="svg4225"
   version="1.1"
   inkscape:version="0.91 r13725"
   width="1567"
   height="853"
   viewBox="0 0 1567 853"
   sodipodi:docname="h-demia+baraccio.svg">
  <metadata
     id="metadata4231">
    <rdf:RDF>
      <cc:Work
         rdf:about="">
        <dc:format>image/svg+xml</dc:format>
        <dc:type
           rdf:resource="http://purl.org/dc/dcmitype/StillImage" />
        <dc:title></dc:title>
      </cc:Work>
    </rdf:RDF>
  </metadata>
  <defs
     id="defs4229" />
  <sodipodi:namedview
     pagecolor="#ffffff"
     bordercolor="#666666"
     borderopacity="1"
     objecttolerance="10"
     gridtolerance="10"
     guidetolerance="10"
     inkscape:pageopacity="0"
     inkscape:pageshadow="2"
     inkscape:window-width="1535"
     inkscape:window-height="876"
     id="namedview4227"
     showgrid="false"
     inkscape:zoom="0.62029355"
     inkscape:cx="787.28146"
     inkscape:cy="343.13721"
     inkscape:window-x="65"
     inkscape:window-y="24"
     inkscape:window-maximized="1"
     inkscape:current-layer="svg4225" />
  <path
     style="fill:#252423"
     d="m 315.4968,749.38845 c -2.74824,-1.98636 -7.9218,-5.53502 -11.4968,-7.88593 -3.575,-2.35091 -8.68014,-6.52197 -11.34477,-9.26901 -4.55938,-4.70043 -4.86985,-5.36124 -5.27064,-11.21839 -0.23424,-3.42307 -0.86659,-7.04723 -1.40524,-8.0537 -2.26417,-4.23064 -0.18129,-16.78368 4.55657,-27.46142 1.46425,-3.3 6.00767,-15.8519 10.09648,-27.89312 14.51001,-42.73075 45.5552,-111.55019 75.83482,-168.10688 14.44663,-26.98363 28.35429,-54.6158 44.40405,-88.2234 25.28048,-52.93638 38.33853,-79.4869 59.46933,-120.91708 32.29367,-63.3167 38.43252,-74.69198 74.12824,-137.35952 17.70046,-31.075 33.48341,-58.909933 35.07321,-61.855407 1.5898,-2.945474 4.7919,-7.029041 7.11577,-9.074594 2.32387,-2.045553 4.76982,-4.91447 5.43546,-6.375371 1.42337,-3.123976 4.74599,-4.521959 6.06453,-2.55164 0.8287,1.238353 0.56241,6.693845 -0.77403,15.857012 -0.50676,3.474573 -0.49711,3.484863 1.32844,1.416386 1.0114,-1.145988 2.93247,-5.358135 4.26906,-9.360326 3.74169,-11.203897 7.38862,-10.823112 6.31636,0.659507 -0.68411,7.325978 0.7286,8.391278 3.36095,2.534433 1.48686,-3.308178 1.73232,-3.484513 2.08341,-1.496663 0.82654,4.679831 -3.40296,14.413624 -25.61092,58.941213 -15.16796,30.41217 -24.62926,50.67829 -28.15378,60.30545 -4.63682,12.66535 -5.85691,15.02138 -9.64289,18.62071 -3.70139,3.5189 -4.33441,4.70407 -4.33441,8.11514 0,2.43434 -0.7551,4.95439 -1.93336,6.4523 -1.06334,1.35182 -3.17487,5.57501 -4.69229,9.38486 -2.03067,5.09851 -4.17866,8.31952 -8.1374,12.20241 -4.65235,4.56322 -5.64865,6.25075 -7.3799,12.5 -3.16379,11.42031 -19.75206,44.33827 -32.43186,64.35816 -3.10222,4.89805 -23.29713,47.67738 -46.50078,98.50366 -12.76391,27.95862 -16.05189,34.57594 -33.22245,66.86276 -19.00102,35.72873 -40.64524,80.85743 -54.91546,114.5 -7.37851,17.39511 -12.52792,29.86686 -34.42387,83.37368 -10.39491,25.40188 -12.32476,36.17299 -8.86263,49.46501 2.04489,7.85088 1.93298,12.95949 -0.32874,15.00632 -2.50539,2.26735 -2.97787,2.16078 -8.67446,-1.95656 z M 1332,733.96411 c -17.875,-0.45557 -72.1,-1.30524 -120.5,-1.88817 -84.6424,-1.01944 -121.271,-1.91999 -167.5,-4.11818 -11.825,-0.56228 -49.85,-1.43336 -84.5,-1.93574 -110.07987,-1.596 -136.40739,-2.04329 -161.5,-2.74374 -13.475,-0.37615 -86.15,-0.61542 -161.5,-0.5317 -160.05958,0.17782 -241.09431,-1.15097 -242.87842,-3.98268 -0.86572,-1.37407 -0.64761,-2.18231 1.04591,-3.87583 l 2.13972,-2.13973 104.8464,0.17897 c 57.66551,0.0984 109.09382,0.57912 114.28512,1.0682 5.19131,0.48908 9.76436,0.68799 10.16234,0.44202 1.44772,-0.89474 136.94944,-0.38358 156.39893,0.58999 11,0.55062 39.575,0.90283 63.5,0.78269 75.12598,-0.37725 85.8949,-0.33049 110,0.47755 29.06354,0.97425 65.109,2.36392 96,3.70109 93.1564,4.03243 143.6089,4.96423 298.8444,5.51932 103.9704,0.37177 132.9112,0.74485 134.9878,1.74014 3.7392,1.79217 3.9628,4.48063 0.4906,5.89855 -3.5748,1.45976 -107.5153,2.01019 -154.3228,0.81725 z m -519.00647,-43.8402 c -6.52831,-2.13753 -12.22567,-6.65757 -14.86214,-11.79097 -1.89081,-3.68156 -5.12926,-22.4836 -5.05229,-29.33294 0.0402,-3.575 0.60132,-7.93283 1.24698,-9.68406 5.09368,-13.8157 20.22234,-21.20551 34.76038,-16.97918 7.09089,2.06137 11.7091,6.74567 13.51528,13.70868 1.63936,6.31987 0.62056,8.95456 -3.46261,8.95456 -2.95748,0 -5.72519,-2.49219 -8.15217,-7.34063 C 829.40929,634.50761 823.4203,631 819.61656,631 c -3.70782,0 -8.00428,4.23402 -10.8661,10.7082 -3.59309,8.12848 -4.27031,14.71401 -2.30285,22.39378 1.97895,7.72458 5.38248,12.35563 11.13439,15.15012 4.15677,2.01951 4.56795,2.04682 7.77724,0.51641 2.39593,-1.14253 4.03194,-3.02951 5.58536,-6.44217 3.35237,-7.36472 3.64489,-7.80178 5.46062,-8.15892 6.33622,-1.24627 5.85093,11.64011 -0.70295,18.66625 -4.9151,5.26928 -16.24336,8.40716 -22.70874,6.29024 z m 131.48515,-0.9946 c -5.48402,-2.49122 -12.92729,-11.03966 -15.42493,-17.71519 -2.86905,-7.66822 -2.71266,-16.59863 0.45598,-26.03783 C 934.72152,629.85064 941.99955,623 953.28202,623 c 21.80635,0 31.55042,20.76839 22.70288,48.38862 -2.52179,7.8725 -3.86638,10.46905 -6.99203,13.50239 -6.29969,6.11364 -16.50274,7.87766 -24.51419,4.2383 z m 15.84801,-10.2323 c 1.33144,-0.60664 3.34649,-2.75004 4.4779,-4.76311 2.59706,-4.62086 6.19717,-17.48259 6.18983,-22.1138 -0.0187,-11.80027 -8.89548,-21.51856 -17.85734,-19.55021 -6.71412,1.47467 -13.50615,13.77285 -13.54748,24.53011 -0.029,7.55907 2.25742,12.80677 7.89816,18.12725 5.22462,4.928 8.30914,5.83367 12.83893,3.76976 z m 104.28931,10.81144 c -1.3544,-0.9903 -1.9534,-3.49769 -2.5682,-10.75 -0.9019,-10.63947 -0.2637,-31.60536 1.0377,-34.08608 0.8914,-1.6991 5.3916,-3.01025 7.5238,-2.19205 2.3629,0.90671 2.7734,3.93026 3.1678,23.32989 l 0.3967,19.51021 -2.5392,2.73979 c -2.8185,3.0413 -4.3951,3.36661 -7.0186,1.44824 z M 736.75,688.42803 c -1.5125,-0.82055 -2.75,-1.99728 -2.75,-2.61495 0,-0.63682 -0.79177,-0.40651 -1.82874,0.53193 -3.80288,3.44156 -5.58617,2.21369 -8.97664,-6.18078 -1.18529,-2.93468 -4.23601,-8.46595 -6.77936,-12.2917 l -4.6243,-6.95593 -7.14548,0.2917 L 697.5,661.5 697,673.34192 c -0.46161,10.93274 -0.68125,11.98842 -2.86078,13.75 -2.70455,2.18592 -5.20612,2.44118 -6.93922,0.70808 -1.52624,-1.52624 -1.71905,-57.96163 -0.20768,-60.78566 1.61088,-3.00994 7.7247,-4.3983 19.50768,-4.42992 9.34884,-0.0251 11.75053,0.3118 16,2.24426 11.75471,5.34549 17.36452,15.73126 13.02739,24.11835 -0.80993,1.56624 -3.73493,4.23974 -6.5,5.9411 -2.76506,1.70136 -5.02739,3.7418 -5.02739,4.5343 0,0.7925 2.025,5.6015 4.5,10.68666 2.475,5.08516 4.5,9.84091 4.5,10.56833 0,0.72742 0.40758,1.32258 0.90574,1.32258 1.11083,0 4.99796,-8.1627 14.7624,-31 10.19933,-23.85446 10.09489,-23.6592 13.38536,-25.02216 3.23119,-1.3384 9.17676,-0.61995 10.7468,1.29862 0.55069,0.67295 2.2065,5.27354 3.67957,10.22354 1.47306,4.95 5.16045,17.0024 8.19419,26.7831 4.44288,14.32378 5.27906,18.06846 4.29847,19.25 -2.77735,3.3465 -7.86288,0.91386 -9.47664,-4.5331 -1.41946,-4.79114 -2.04814,-5 -15.05024,-5 l -12.30946,0 -2.08914,2.93393 c -1.14903,1.61366 -2.76792,4.85779 -3.59754,7.20918 -2.16992,6.15019 -4.42497,7.1464 -9.69951,4.28492 z m 35.71268,-27.36764 C 773.25431,659.77949 765.84917,645 764.41575,645 c -0.63013,0 -2.63384,3.41312 -4.45268,7.5847 -2.74803,6.30271 -3.06665,7.73683 -1.88503,8.48469 1.88864,1.19535 13.64485,1.18799 14.38464,-0.009 z M 712,648.35305 c 8.93777,-2.26982 11.37483,-7.13206 6.17902,-12.32788 -2.40524,-2.40524 -3.92995,-2.9249 -10.34574,-3.52611 -11.77512,-1.10342 -11.39525,-1.39859 -10.9702,8.52458 0.19969,4.662 0.58337,8.84561 0.85262,9.29692 0.54018,0.90542 5.85361,0.17355 14.2843,-1.96751 z m 329.5,40.5991 c -1.1,-0.45707 -5.1979,-0.57708 -9.1065,-0.26667 -8.9562,0.71127 -13.2299,-0.65506 -17.7711,-5.68167 -8.2948,-9.18138 -8.6456,-27.82679 -0.6735,-35.79891 4.0422,-4.04219 11.0391,-5.89039 16.6343,-4.39389 2.3651,0.63258 4.889,1.27138 5.6085,1.41957 0.983,0.20242 1.4326,-2.21728 1.8083,-9.73058 l 0.5,-10 3.6846,-0.30647 c 2.7644,-0.22993 3.9019,0.14468 4.5547,1.5 0.4785,0.99356 0.6204,15.17863 0.3154,31.52238 -0.5948,31.86435 -0.9102,33.66615 -5.5547,31.73624 z m -9.5909,-11.32454 c 2.6834,-2.14724 6.0711,-11.01483 6.0811,-15.91745 0.011,-5.22873 -2.8799,-12.07013 -5.5294,-13.08683 -7.1974,-2.76189 -16.4169,6.43504 -16.4169,16.37667 0,10.55469 9.2526,17.91912 15.8652,12.62761 z m -158.99256,10.38864 c -9.98279,-1.80318 -19.49684,-13.72952 -22.09422,-27.69622 -2.11958,-11.39749 3.04573,-25.18537 11.99116,-32.00828 13.98799,-10.66899 32.02307,-4.24864 32.53702,11.58293 0.14562,4.48594 0.0666,4.61334 -3.04978,4.9149 -2.85177,0.27594 -3.42311,-0.12916 -5.25981,-3.7294 -4.91285,-9.62998 -18.59005,-9.65409 -23.56089,-0.0415 -3.80728,7.36246 -0.20486,25.23652 6.42187,31.86325 7.92909,7.92909 15.20522,5.7705 17.5626,-5.21025 0.54585,-2.54258 0.9546,-2.77917 4.31921,-2.5 3.29724,0.27359 3.7545,0.64461 4.0551,3.29028 0.73501,6.46905 -3.87821,14.9813 -9.70792,17.91293 -3.50486,1.76252 -8.82152,2.41487 -13.21434,1.6214 z m 246.64756,-0.3447 c -1.8056,-1.32121 -1.9655,-3.13364 -2.3766,-26.92597 l -0.4407,-25.50941 -8.1234,-0.70656 c -4.4679,-0.38861 -8.6859,-1.17185 -9.3734,-1.74053 -1.7924,-1.48262 -1.597,-7.71869 0.2642,-8.4329 0.8328,-0.31958 11.7453,-0.19296 24.25,0.28138 L 1146.5,625.5 l 0.3117,2.70055 c 0.6243,5.41032 -0.9164,6.46168 -10.3298,7.04896 -4.7307,0.29514 -8.8328,0.76803 -9.1156,1.05086 -0.2828,0.28283 -0.4007,8.31845 -0.2619,17.85693 0.1388,9.53849 0.2846,21.1677 0.324,25.8427 l 0.072,8.5 -3,0.29405 c -1.65,0.16173 -3.8711,-0.34339 -4.9359,-1.1225 z M 1232,687.84987 c -12.6956,-0.76977 -15.8259,-1.26258 -17.3012,-2.72384 -1.6152,-1.59979 -1.7966,-3.78965 -1.7567,-21.20503 0.024,-10.68155 0.3397,-23.39209 0.7004,-28.24565 0.9018,-12.1363 0.1793,-11.79117 23.9664,-11.44793 L 1256.5,624.5 l 0,4 0,4 -15.1704,0.5 c -8.3437,0.275 -15.5389,0.87026 -15.9894,1.3228 -1.1201,1.12508 -0.3934,13.87618 0.8791,15.4272 0.7154,0.8719 4.6077,1.25 12.868,1.25 10.6847,0 11.9435,0.18908 12.8775,1.93426 0.5694,1.06384 1.0352,2.86384 1.0352,4 0,1.9853 -0.5239,2.06574 -13.4547,2.06574 l -13.4547,0 -0.6425,3.42516 c -0.3534,1.88383 -0.2613,6.25184 0.2046,9.70668 1.0359,7.67971 0.9175,7.63026 18.5973,7.76848 12.6231,0.0987 12.75,0.12266 12.75,2.40855 0,3.52188 -2.1381,5.6976 -6.0033,6.1088 -1.9232,0.2046 -10.4717,-0.0509 -18.9967,-0.5678 z m 38.2,-0.0499 c -0.7564,-0.75636 -1.2,-4.54243 -1.2,-10.24093 0,-12.9498 2.1296,-46.64895 3.1161,-49.30907 0.9486,-2.55803 5.415,-3.11082 8.0796,-1 0.8679,0.6875 6.8704,9.575 13.339,19.75 11.37,17.88495 14.9685,22.88005 15.809,21.94444 0.2196,-0.24444 -0.08,-9.38699 -0.6652,-20.31678 -1.0167,-18.98154 -0.9799,-19.93409 0.8197,-21.25 1.0362,-0.75771 2.162,-1.37766 2.5018,-1.37766 1.9838,0 4.3254,3.20173 5.1627,7.05926 1.3883,6.39551 2.186,52.08484 0.9413,53.91801 -1.3468,1.98376 -8.118,1.90452 -11.1827,-0.13085 -1.3317,-0.88447 -7.5963,-9.75095 -13.9213,-19.70328 -6.325,-9.95233 -12.0062,-18.10594 -12.625,-18.11914 -1.7788,-0.038 -2.375,5.14512 -2.375,20.64645 0,13.97728 -0.075,14.49589 -2.4545,16.875 -2.7682,2.76821 -3.6297,2.97038 -5.3455,1.25455 z m 75.3567,-1.02251 c -1.273,-1.81751 -1.5702,-5.78086 -1.6308,-21.75 -0.041,-10.74012 -0.3783,-21.55249 -0.75,-24.02749 l -0.6759,-4.5 -7.9526,-0.29571 c -4.374,-0.16264 -8.5365,-0.78024 -9.25,-1.37245 -1.7199,-1.42733 -1.6582,-6.28753 0.098,-7.74525 1.6483,-1.36798 40.9762,-0.39588 43.8543,1.08398 2.0479,1.05297 2.3235,5.1086 0.4526,6.66127 -0.7135,0.59221 -4.876,1.20981 -9.25,1.37245 L 1352.5,636.5 l 0.3796,24.0736 c 0.3982,25.25637 -0.032,28.4264 -3.8581,28.4264 -1.0494,0 -2.6086,-1.00013 -3.4648,-2.22251 z m -718.99901,0.31586 c -0.71952,-1.16422 1.32803,-7.46828 11.3983,-35.09335 4.51111,-12.375 8.91121,-23.2875 9.778,-24.25 1.8477,-2.05171 8.50558,-2.38333 10.03866,-0.5 2.38852,2.9342 21.30613,52.92642 20.72309,54.76343 -0.7884,2.48401 -5.23004,5.98657 -7.59164,5.98657 -2.58075,0 -5.58972,-3.56792 -7.52185,-8.91911 C 660.79523,671.91595 658.09394,670 650.57909,670 c -7.93511,0 -10.76671,1.99737 -13.13141,9.26268 -0.93755,2.88052 -2.39156,6.02482 -3.23114,6.98732 -1.60174,1.83624 -6.69836,2.39745 -7.65885,0.84335 z m 29.07749,-26.58502 c 0.54717,-1.42591 -2.22666,-11.28764 -3.60048,-12.80071 -0.9846,-1.0844 -2.30343,0.84712 -4.79813,7.02723 -1.86036,4.60865 -1.93004,5.33731 -0.58249,6.09144 2.6028,1.4566 8.3786,1.25212 8.9811,-0.31796 z m 252.55691,26.28376 c -1.43229,-1.43229 -0.52371,-57.11405 0.97972,-60.04209 1.06791,-2.07983 5.11603,-2.31303 6.71465,-0.3868 0.71975,0.86724 1.31704,8.78025 1.64173,21.75 0.28071,11.21274 0.71363,23.88738 0.96204,28.16586 0.39303,6.76944 0.19584,8.03487 -1.51929,9.75 -2.20092,2.20092 -6.92993,2.61195 -8.77885,0.76303 z M 1157.309,686.75 c -0.6737,-1.04094 -1.5064,-18.26404 -2.6229,-54.25 l -0.1861,-6 16,-0.28587 c 8.8,-0.15723 17.0042,-0.0382 18.2317,0.26445 3.4606,0.85338 9.3889,6.57867 11.4033,11.01284 3.6644,8.06619 1.5674,15.55323 -5.7703,20.60169 -2.4006,1.65163 -4.3647,3.39642 -4.3647,3.87731 0,0.48089 2.5253,6.04586 5.6118,12.3666 3.0864,6.32075 5.3099,11.98068 4.941,12.57762 -0.9168,1.4834 -5.7827,1.36898 -7.9092,-0.18598 -0.9563,-0.69924 -4.1176,-5.76174 -7.0252,-11.25 -5.5098,-10.40025 -7.6635,-12.43735 -13.1773,-12.46392 -5.3793,-0.0259 -6.3481,1.55342 -7.0453,11.48526 -0.3475,4.95 -1.2641,10.0125 -2.0369,11.25 -1.5318,2.45298 -4.7637,2.9872 -6.0499,1 z m 24.3567,-33.77973 c 5.1125,-2.18851 7.7888,-6.05363 7.7888,-11.24836 0,-5.52124 -2.5587,-7.30929 -11.6834,-8.16434 -4.3911,-0.41148 -8.3968,-0.27018 -10.0388,0.35412 -2.6747,1.01691 -2.7323,1.21445 -2.7323,9.37243 0,5.14329 0.4785,8.94874 1.25,9.94039 2.3674,3.0431 7.9271,2.95141 15.4157,-0.25424 z m -644.63168,32.27818 c -5.9247,-2.98877 -6.8508,-5.8477 -7.86379,-24.27602 -1.03717,-18.86806 -0.24449,-39.29817 1.59615,-41.13881 0.87299,-0.87299 2.01235,-0.94611 3.97847,-0.25535 l 2.75515,0.96798 1.22854,25.33067 c 0.86601,17.8559 1.64477,26.11154 2.63909,27.97688 0.7758,1.45541 2.33157,4.37218 3.45726,6.48172 1.12569,2.10953 1.80245,4.47203 1.50392,5.25 -0.74176,1.933 -5.1087,1.77464 -9.29479,-0.33707 z M 507,684 c -1.78698,-1.78698 -1.98872,-3.25146 -1.89411,-13.75 0.0582,-6.4625 0.39574,-15.8 0.75,-20.75 l 0.64411,-9 3.37716,-0.32284 c 1.85743,-0.17757 3.88243,0.18287 4.5,0.80096 1.37439,1.37557 0.90611,40.59722 -0.51664,43.27188 -1.24026,2.33161 -4.39383,2.21669 -6.86052,-0.25 z m 70.25,1.03424 -2.25,-0.96979 0,-29.3411 c 0,-23.19327 0.28562,-29.7317 1.36314,-31.20529 1.32831,-1.81658 1.829,-1.80994 19.60077,0.25989 11.58279,1.34902 19.09802,2.68783 20.59551,3.66903 1.29683,0.84971 2.88471,3.30335 3.52861,5.45252 1.69963,5.67285 0.47806,10.39629 -3.61901,13.99356 -1.90796,1.67521 -3.46902,3.41589 -3.46902,3.86818 0,0.45229 2.01225,2.79722 4.47166,5.21095 5.35706,5.25755 7.52964,9.4958 7.5246,14.67894 -0.005,5.40406 -2.96277,9.67015 -8.5937,12.39604 -4.28986,2.07669 -6.47785,2.3536 -20.84772,2.63853 -8.94842,0.17743 -17.05077,-0.11093 -18.30484,-0.65146 z m 22.25,-8.59961 c 5.43153,-0.95313 8.87133,-2.82622 10.9133,-5.94266 3.9742,-6.06539 -0.0974,-9.91993 -12.7927,-12.11075 -11.45951,-1.97756 -11.79082,-1.7163 -11.40855,8.99637 0.26622,7.46081 0.47658,8.16672 2.78795,9.35548 1.375,0.70717 3.4,1.08726 4.5,0.84463 1.1,-0.24263 3.8,-0.75702 6,-1.14307 z m 2.25067,-32.62826 c 2.88787,-1.07281 5.92448,-2.62438 6.74802,-3.44792 3.87845,-3.87845 -4.97,-8.68193 -15.03993,-8.16458 L 587.5,632.5 l -0.29639,5.63218 c -0.49439,9.39482 1.95735,10.35114 14.54706,5.67419 z M 1394.5,684.06493 c -8.8369,-2.15134 -15.6908,-9.20074 -17.9037,-18.41434 -1.4624,-6.08905 -0.7684,-18.11562 1.3761,-23.84734 3.837,-10.2553 13.8279,-18.80325 21.9773,-18.80325 7.969,0 17.9711,6.07862 21.6234,13.14129 4.1452,8.01603 3.8168,29.25371 -0.5858,37.88357 -4.4229,8.66958 -15.2535,12.77493 -26.4873,10.04007 z m 11.5156,-8.92195 c 4.4888,-2.39232 8.8782,-10.71403 9.6632,-18.32007 C 1416.9035,644.95695 1409.549,632 1401.5891,632 c -2.0463,0 -4.5916,0.46616 -5.6562,1.03591 -2.3361,1.25023 -5.8784,8.10297 -8.8341,17.08991 -2.1275,6.46873 -2.1397,6.79955 -0.5126,13.95332 2.1473,9.44083 5.2722,12.92086 11.6025,12.92086 2.3884,0 5.9105,-0.83566 7.8269,-1.85702 z m -342.6344,-43.68394 c -1.3332,-2.0348 -1.4417,-3.03082 -0.5445,-5 2.202,-4.83278 11.1633,-2.2883 11.1633,3.1697 0,4.91467 -7.7254,6.24624 -10.6188,1.8303 z m -556.97922,-0.85388 c -0.29439,-0.76716 -0.39276,-3.08409 -0.21861,-5.14872 0.37033,-4.39048 2.84426,-6.55957 5.54118,-4.85839 2.23855,1.41204 3.69992,8.18557 2.16502,10.03501 -1.48126,1.7848 -6.79959,1.76499 -7.48759,-0.0279 z M 153.2,600.8 c -0.66,-0.66 -1.2,-1.94931 -1.2,-2.86514 0,-1.8611 -3.66676,-6.93486 -5.01176,-6.93486 -0.47663,0 -2.87813,1.74097 -5.33667,3.86881 -8.54308,7.39399 -11.61705,6.53479 -22.72649,-6.35223 C 109.31695,577.3711 102.73172,567.57163 100.07069,560.45939 97.24146,552.8976 98.022898,552 107.43535,552 c 6.68403,0 7.3929,0.21129 10.06465,3 3.2691,3.4122 6.6604,3.8396 9.32482,1.17518 1.00364,-1.00364 6.02368,-12.36614 11.15563,-25.25 12.80278,-32.14159 18.50381,-44.90219 27.9367,-62.53066 4.44557,-8.30801 8.08285,-15.62051 8.08285,-16.25 0,-1.70274 -6.59851,-1.43916 -45,1.79759 -21.01698,1.77146 -36.940745,3.58699 -40.745317,4.64554 -4.937185,1.37368 -6.769943,1.49861 -8.75,0.59644 -2.944075,-1.34141 -3.104198,-3.7177 -1.483967,-22.02256 1.059622,-11.97126 1.885986,-14.6913 4.728223,-15.56332 4.705678,-1.44372 40.487451,-5.93326 72.652971,-9.11576 19.74605,-1.95371 36.23952,-3.76084 36.65216,-4.01587 0.41263,-0.25502 1.7148,-3.72683 2.89371,-7.71513 3.45278,-11.68095 3.71713,-12.10943 8.95275,-14.51132 4.83337,-2.21735 8.12814,-6.76669 6.64206,-9.17121 -1.096,-1.77338 6.27513,-13.67805 10.74193,-17.34864 3.4445,-2.83052 6.06948,-7.09963 14.35262,-23.34218 5.57542,-10.93295 11.14465,-23.0281 12.37606,-26.8781 1.23142,-3.85 3.03048,-7.9 3.99793,-9 0.96745,-1.1 2.08602,-3.125 2.48572,-4.5 1.21516,-4.18026 6.34763,-12.76287 17.04325,-28.5 5.60705,-8.25 17.04401,-26.7 25.41548,-41 8.37146,-14.3 17.52004,-29.53648 20.33017,-33.85885 l 5.10932,-7.85885 4.05247,0.58705 c 10.77004,1.56017 15.16166,4.14243 16.20388,9.52782 0.62876,3.24892 0.54661,3.36935 -1.88256,2.75966 -3.90998,-0.98134 -5.61287,1.64437 -3.44573,5.31304 2.46758,4.17727 2.08203,5.85853 -1.87946,8.19587 -2.56989,1.51627 -3.36635,2.54708 -2.8714,3.71627 2.45362,5.79614 1.23981,8.40954 -5.72353,12.32316 -4.71788,2.65159 -5.55865,4.57855 -2.34919,5.38407 3.72204,0.93417 9.57097,-2.48339 12.98847,-7.58924 l 3.01198,-4.5 0.31485,3.26993 c 0.24874,2.58346 -2.65768,9.09149 -13.84429,31 -7.78752,15.25154 -16.54515,33.83224 -19.46139,41.29045 -5.939,15.18882 -9.32892,22.14585 -34.1197,70.02296 C 263.82526,384.55418 256,400.41668 256,401.33334 c 0,2.08236 1.18362,2.09074 24.5,0.17357 12.70504,-1.04467 32.70821,-1.48289 68,-1.48974 47.16891,-0.009 50.1744,0.0966 53.08004,1.86851 3.43157,2.09257 6.41996,7.49937 6.41996,11.61545 0,2.94005 -2.91284,6.1333 -12.05587,13.21647 -2.99427,2.31968 -7.1725,5.69468 -9.28495,7.5 l -3.84081,3.2824 -49.65919,0.66176 c -36.62882,0.48812 -55.30923,1.17347 -71.19175,2.61189 -22.48862,2.0367 -26.51625,3.06387 -29.39724,7.49716 -2.14806,3.30547 -24.99848,54.04553 -39.28302,87.22919 -16.04345,37.26969 -20.82855,47.3533 -26.69882,56.26224 -6.32462,9.5985 -10.20689,12.21922 -13.38835,9.03776 z M 311.25,267.16127 C 315.42585,260.67898 315.96869,258 313.10634,258 c -1.39742,0 -2.57666,1.7061 -4.5,6.51052 -1.43349,3.58079 -2.60634,6.95579 -2.60634,7.5 0,2.22975 1.70319,0.65657 5.25,-4.84925 z M 1345,595.42101 c -0.825,-0.20378 -46.5,-0.83577 -101.5,-1.40444 -55,-0.56867 -112.15,-1.4698 -127,-2.00252 -91.0244,-3.26535 -120.17845,-3.99041 -184,-4.57607 -39.05,-0.35835 -74.6,-0.85242 -79,-1.09794 -4.4,-0.24552 -96.425,-0.54313 -204.5,-0.66135 -159.0317,-0.17397 -196.9406,-0.46274 -198.81068,-1.51448 -2.82792,-1.59042 -2.61263,-5.15581 0.40166,-6.65211 2.53652,-1.25914 168.78057,-1.2771 299.40902,-0.0324 48.675,0.46382 115.5,0.73605 148.5,0.60495 57.9169,-0.2301 83.97904,0.32244 161,3.41328 123.2332,4.94535 155.0119,5.53682 293.7022,5.46649 115.2901,-0.0585 129.0198,0.099 131.75,1.51082 1.6763,0.86684 3.0478,2.22369 3.0478,3.01522 0,3.88646 -2.0708,4.00433 -73,4.15525 -37.675,0.0802 -69.175,-0.021 -70,-0.22474 z m 31,-50.18331 c -13.0061,-0.97472 -21.7391,-3.86931 -20.6033,-6.82908 0.3044,-0.79338 -0.383,-3.23922 -1.5276,-5.4352 -1.3403,-2.57138 -1.8586,-4.87921 -1.456,-6.48306 0.8789,-3.50206 -0.7406,-3.11032 -2.107,0.50964 -0.6228,1.65 -1.7977,3 -2.6108,3 -2.1843,0 -2.8493,-4.18358 -1.5948,-10.03284 1.1935,-5.56524 0.4332,-7.49292 -2.5099,-6.36356 -1.9539,0.74979 -3.5906,4.33426 -3.5906,7.86367 0,1.6136 -0.8513,2.68094 -2.75,3.44785 -1.5125,0.61092 -4.2063,2.18092 -5.9862,3.48888 -4.661,3.42508 -25.3334,10.50315 -34.1956,11.70828 -4.1625,0.56604 -10.4932,1.77911 -14.0682,2.69571 -11.9836,3.0725 -31.4759,0.90421 -36.8119,-4.0949 -1.2993,-1.2172 -4.0857,-5.81309 -6.1921,-10.21309 -2.1064,-4.4 -5.3297,-9.7039 -7.1629,-11.78644 l -3.3331,-3.78643 -5.5,3.92399 c -7.0431,5.02492 -40.0984,18.43329 -45,18.25356 -1.925,-0.0706 -4.85,-0.0853 -6.5,-0.0327 -19.0826,0.60832 -20.805,0.0154 -21.8374,-7.51669 C 1149.8884,521.90685 1147.458,517 1145.4345,517 c -2.4249,0 -9.0895,3.71682 -21.6689,12.08447 C 1110.4867,537.91752 1096.3745,545 1092.0532,545 c -3.8509,0 -6.7749,-3.79477 -7.5668,-9.82038 -1.1539,-8.77938 -1.6838,-10.41847 -3.5233,-10.89953 -2.4224,-0.63347 -2.8443,-1.97367 -3.9327,-12.49391 -1.4948,-14.44866 0.7967,-29.02915 6.9954,-44.50959 1.6358,-4.08524 2.9742,-7.61871 2.9742,-7.85215 0,-1.71721 -3.3202,1.37802 -14.8303,13.82556 -11.7059,12.65934 -15.0576,16.96778 -21.897,28.14773 -3.2448,5.30416 -7.303,9.42789 -12.9977,13.20787 -3.1008,2.05816 -8.0359,5.91387 -10.967,8.56825 -2.931,2.65438 -6.1899,4.82615 -7.2419,4.82615 -1.0519,0 -3.3712,1.22727 -5.1538,2.72727 -4.2252,3.55522 -10.2704,3.78365 -12.9383,0.48889 -3.2334,-3.99302 -6.3847,-19.53999 -6.27675,-30.96616 0.0533,-5.6375 -0.27008,-10.25 -0.71855,-10.25 -0.95599,0 -4.99829,3.4525 -26.89755,22.97302 -8.93018,7.96016 -17.55169,15.02594 -19.15892,15.70173 C 946.315,529.35053 945,530.36098 945,530.92018 c 0,1.07201 -8.6381,7.75371 -14.48007,11.20056 -5.09566,3.00652 -7.16351,1.85298 -10.69259,-5.9648 C 915.57001,526.72489 913,515.87777 913,507.34004 913,503.30302 912.79032,500 912.53405,500 c -0.25627,0 -7.11877,3.6549 -15.25,8.12199 C 880.56387,517.30765 859.72276,528 858.53861,528 c -0.43368,0 -3.31979,1.08609 -6.41356,2.41353 -21.1494,9.07454 -25.72958,10.72464 -28.59582,10.30219 -1.66608,-0.24555 -4.79176,0.17446 -6.94596,0.93338 -4.92329,1.73444 -6.70648,1.15844 -11.54579,-3.72948 C 802.24929,535.10342 800.3171,534 798.17388,534 c -2.55901,0 -3.40791,-0.75296 -5.97289,-5.29785 C 788.56629,522.26181 784.25168,517 782.60539,517 c -0.66926,0 -2.69585,1.09118 -4.50354,2.42485 -1.80768,1.33367 -6.95761,3.88532 -11.44428,5.67033 -4.48666,1.78501 -13.26211,5.44819 -19.50098,8.14041 -12.59562,5.43528 -14.74313,5.45083 -20.27934,0.14681 -3.50977,-3.36257 -5.90777,-2.7568 -8.43571,2.13097 -3.02554,5.8499 -6.33206,5.93814 -11.53759,0.30791 -13.75282,-14.87483 -18.26846,-33.47908 -14.36736,-59.19294 2.10053,-13.84554 2.10168,-13.86384 0.89712,-14.29281 -1.50637,-0.53645 -25.36709,23.4849 -40.15382,40.42414 -13.28331,15.21697 -18.56268,19.64071 -24.84334,20.81694 -2.1651,0.40548 -5.43225,1.36153 -7.26033,2.12456 -2.9783,1.24312 -3.8964,1.17307 -8.83298,-0.67394 C 604.03933,521.92034 589,512.85295 589,510.95332 c 0,-2.17337 4.15855,-4.84452 9.16053,-5.88406 13.33547,-2.77148 18.23474,-6.71524 44.18703,-35.56926 9.89378,-11 27.02554,-29.60353 38.07057,-41.34118 C 701.91163,405.31749 711,394.08701 711,390.36885 c 0,-1.56733 -0.97821,-2.82334 -3.02201,-3.88023 -2.81213,-1.45421 -3.34949,-1.41788 -7.73754,0.52317 C 695.17464,389.25263 691,392.63565 691,394.5 c 0,0.63325 -1.0125,2.08715 -2.25,3.23088 C 685.78543,400.47082 673.77932,407 671.70559,407 c -0.89558,0 -5.26309,2.475 -9.70559,5.5 -4.4425,3.025 -8.95988,5.5 -10.03863,5.5 -2.14662,0 -4.0955,1.68716 -8.2682,7.15786 -2.39827,3.14429 -6.04743,5.46432 -14.4616,9.19425 -2.21389,0.9814 -9.95241,12.14794 -13.96268,20.14789 -1.10283,2.2 -3.70948,8.725 -5.79255,14.5 -2.08307,5.775 -4.21336,11.05147 -4.73397,11.72549 -0.52062,0.67402 -1.46313,3.54788 -2.09447,6.38635 -1.14736,5.15842 -1.15042,5.1615 -6.48888,6.5273 -2.93754,0.75154 -5.82074,1.06993 -6.40712,0.70753 -0.58638,-0.36241 -2.53796,-0.60358 -4.33685,-0.53596 -2.78933,0.10486 -3.35794,-0.2769 -3.86338,-2.59387 -0.32596,-1.49426 -0.11291,-4.96684 0.47346,-7.71684 0.58637,-2.75 1.43032,-8.50419 1.87545,-12.78709 0.69632,-6.69978 1.66969,-9.49746 6.97109,-20.03643 11.46499,-22.79191 23.29333,-40.55424 29.42582,-44.18802 1.53862,-0.9117 5.81362,-4.35557 9.5,-7.65305 11.75458,-10.51449 39.88114,-25.63322 52.70251,-28.32893 9.56265,-2.01055 13.39333,-1.87007 17.5,0.64177 2.48085,1.51741 4.92544,2.09184 8.39528,1.97275 3.32895,-0.11426 5.47681,0.35826 6.71276,1.47677 0.99961,0.90464 2.39673,1.42116 3.10471,1.14784 0.70799,-0.27333 3.66781,-7.76313 6.57738,-16.644 11.029,-33.66377 22.64787,-58.76798 35.93269,-77.63767 5.40707,-7.68017 14.69406,-21.0292 20.63776,-29.66452 7.18554,-10.43953 11.9515,-16.37601 14.22307,-17.71628 C 797.46264,232.97451 799,231.40631 799,230.59825 799,228.99138 819.5293,213 821.59215,213 c 0.70067,0 2.93329,-2.025 4.96136,-4.5 3.41448,-4.16692 4.03378,-4.5 8.36695,-4.5 5.2399,0 7.07954,1.25356 7.07954,4.82414 0,1.33328 1.55261,5.86282 3.45025,10.06566 3.34871,7.41667 3.43444,7.92062 2.9132,17.12587 -0.67199,11.86771 -3.45385,20.73392 -11.81378,37.65236 -7.30592,14.78537 -14.02986,25.21138 -36.00714,55.83197 -16.82375,23.44026 -20.43858,27.83054 -24.79253,30.111 -1.81219,0.94917 -2.75,2.2424 -2.75,3.79224 0,1.29353 -0.65462,2.89515 -1.45471,3.55917 -0.80008,0.66401 -2.55336,3.08161 -3.89617,5.37244 -1.3428,2.29083 -4.23374,5.6051 -6.42431,7.36505 -2.19056,1.75994 -4.28968,4.45994 -4.6647,6 -0.89196,3.66295 -4.65368,9.37939 -11.05538,16.8001 -12.3734,14.34299 -17.15454,24.3361 -23.03226,48.13985 -5.80585,23.51275 -7.97475,37.88172 -7.03685,46.61929 0.90789,8.45807 2.39181,10.17343 8.12145,9.38809 7.17142,-0.98295 22.27601,-6.39901 38.94293,-13.96379 18.31129,-8.31112 17.76643,-7.72033 21.38133,-23.18344 5.23522,-22.39417 20.88635,-43.25264 46.62169,-62.13333 9.30061,-6.82338 35.1756,-22.7591 39.1724,-24.12524 1.74648,-0.59697 6.24648,-2.94851 10,-5.22566 7.21662,-4.37812 9.09235,-4.60882 16.32458,-2.00781 6.03468,2.17033 6.47387,2.57806 7.57034,7.02819 0.58869,2.38925 1.60035,4.52075 2.24814,4.73668 0.64778,0.21592 2.70858,-0.55348 4.57954,-1.7098 l 3.40174,-2.1024 3.10012,2.60858 3.10012,2.60858 -0.006,11.6611 c -0.003,6.41361 -0.4411,14.3193 -0.97314,17.56819 -1.06646,6.51232 -6.30943,16.23228 -9.26104,17.16908 -0.99983,0.31734 -3.72883,2.45502 -6.06442,4.75041 -9.12789,8.97074 -27.65136,24.18983 -36.69561,30.14952 -5.225,3.443 -17.375,10.78708 -27,16.32016 -26.10814,15.00869 -27.9233,16.15706 -29.61187,18.73414 -1.83471,2.80012 -1.09654,6.02011 1.72643,7.53092 4.12111,2.20555 28.38203,-6.62853 40.50733,-14.74985 3.23296,-2.16538 8.57811,-5.43367 11.87811,-7.26285 23.13562,-12.82404 71.266,-49.99135 113.55043,-87.68608 C 1002.5161,381.55248 1005.6375,379 1007.8437,379 c 3.186,0 10.3879,7.33529 9.9862,10.17115 -0.2294,1.61959 -0.9989,2.338 -2.5266,2.35889 -3.0495,0.0417 -3.8033,1.07867 -3.8033,5.23173 0,3.21107 -0.3446,3.68226 -3.25,4.44368 -2.7392,0.71787 -3.25,1.31512 -3.25,3.80009 0,3.30626 -2.4776,5.37646 -7.75,6.47575 -3.42154,0.71339 -4.34712,2.88373 -1.66821,3.91172 2.88692,1.10782 5.10121,0.63275 8.82311,-1.89301 2.0261,-1.375 4.1255,-2.5 4.6652,-2.5 2.843,0 -4.623,8.25835 -30.77212,34.03803 -31.39157,30.94803 -32.54507,32.4433 -36.36038,47.13353 -1.04683,4.03064 -1.91104,7.89094 -1.92046,8.57844 -0.0392,2.8581 3.08023,0.78634 10.53982,-7 38.35011,-40.02997 79.81734,-81.60118 84.41714,-84.62875 3.3102,-2.17882 6.0897,-4.91441 6.932,-6.82257 1.4246,-3.22713 6.0913,-6.03637 8.0335,-4.83598 0.5832,0.36043 1.0724,1.86628 1.087,3.34632 l 0.027,2.69098 1.7096,-2.75759 c 3.5451,-5.71816 7.4574,-4.31724 8.714,3.12028 0.3418,2.02302 1.0579,4.34402 1.5913,5.15777 0.8326,1.27001 1.1757,1.20997 2.4234,-0.42396 4.2498,-5.56559 1.8662,7.76067 -3.1946,17.86079 -4.9294,9.83779 -12.2143,21.14053 -18.2813,28.36405 C 1031.1923,470.0891 1017.4437,495 1021.8405,495 c 0.9087,0 20.0573,-19.2693 24.8434,-25 1.6077,-1.925 6.6915,-8.45 11.2973,-14.5 15.9644,-20.9701 27.7407,-33.7221 42.0188,-45.5 3.575,-2.94899 8.975,-7.70835 12,-10.57636 7.9365,-7.52463 11.182,-7.90329 12.2018,-1.42364 0.3361,2.13515 0.89,1.51933 3.7955,-4.21963 1.8711,-3.69579 4.0268,-6.95938 4.7905,-7.25242 0.7863,-0.30175 2.5427,0.8362 4.0503,2.62408 1.464,1.73629 4.1826,4.89381 6.0412,7.01672 l 3.3792,3.85983 -3.2437,10.23571 c -3.8876,12.26735 -8.0202,20.70995 -17.0031,34.73571 -9.6908,15.13123 -15.2757,25.29614 -20.0988,36.5815 -3.7707,8.82273 -4.2909,10.99349 -4.7087,19.64894 -0.3797,7.8662 -0.1933,9.8365 0.9728,10.284 1.6769,0.64347 17.5443,-7.82254 26.449,-14.1118 8.055,-5.68912 24.1301,-22.80865 28.2761,-30.11314 1.8073,-3.18422 5.3531,-9.52421 7.8795,-14.08885 6.1729,-11.15328 18.8488,-26.80084 35.2073,-43.46097 14.6081,-14.87754 16.1942,-15.74326 21.3762,-11.6671 1.76,1.38436 2.6349,3.03167 2.6349,4.96088 0,3.17084 -13.3859,31.70869 -18.2628,38.93515 -1.682,2.49226 -7.4273,10.38139 -12.7674,17.53139 -15.5789,20.85903 -22.0286,33.64083 -23.563,46.69605 -0.8339,7.09496 0.5016,8.29963 8.3078,7.49395 6.0393,-0.6233 17.236,-5.76359 33.0568,-15.17595 18.9618,-11.28103 36.1468,-26.6024 58.4603,-52.12045 24.3084,-27.79939 59.6117,-52.27879 82.9998,-57.55219 13.0515,-2.94277 14.9438,-3.09334 17.7685,-1.41377 1.375,0.81756 3.4909,1.93647 4.7021,2.48646 2.2683,1.03006 5.2979,5.86191 5.2979,8.44965 0,1.71644 -10.2161,15.72115 -14.8083,20.29997 -1.7451,1.74004 -5.0897,3.86474 -7.4323,4.72154 -2.3427,0.8568 -10.1094,3.64256 -17.2594,6.19058 -7.15,2.54802 -15.3573,5.78128 -18.2384,7.18504 -10.2628,5.00031 -42.5829,35.42276 -52.7112,49.61633 -9.7734,13.6962 -14.2403,29.87926 -9.4448,34.2178 1.7774,1.608 3.6092,1.89443 11.75,1.83726 8.5589,-0.0601 11.01,-0.5302 21.7773,-4.17648 13.993,-4.73867 21.6494,-8.40004 32.8671,-15.71727 14.4694,-9.43833 18.1345,-14.01921 26.4089,-33.00752 7.127,-16.35552 13.3732,-26.6162 21.1763,-34.78689 5.894,-6.17164 6.9341,-6.86123 9.9093,-6.56976 8.4219,0.82507 9.7888,18.18012 2.7957,35.49348 -2.4546,6.07684 -5.8954,12.32592 -15.0495,27.33217 -6.5268,10.69924 -7.0368,15.55927 -2.0959,19.97393 6.052,5.40748 23.4236,6.38923 36.2693,2.04975 9.5491,-3.22581 22.9388,-9.11596 26.3373,-11.58576 1.7867,-1.29849 5.2736,-3.45458 7.7486,-4.79132 5.0692,-2.73783 6.9757,-4.62959 11.409,-11.32056 6.1534,-9.28696 10.4979,-10.30023 15.1034,-3.52258 3.4928,5.14007 3.3913,10.63011 -0.25,13.52221 -1.5056,1.19588 -5.6681,5.14036 -9.25,8.76551 -8.1815,8.28044 -10.0357,9.28237 -15.6268,8.44394 -4.8972,-0.73438 -5.3479,-0.0282 -2.3856,3.73775 2.8123,3.57524 2.5266,5.02166 -1.75,8.86077 -5.5303,4.96457 -15.9472,9.78066 -34.5278,15.96339 -8.7052,2.89665 -19.9897,4.64522 -26.7222,4.14067 z M 843.09198,445.43034 c 18.22027,-11.45166 25.92483,-17.81353 23.95667,-19.78169 -1.40094,-1.40094 -7.55541,1.59087 -18.18953,8.8423 C 836.01646,443.24839 820.72739,457 823.83351,457 c 0.46775,0 9.13407,-5.20635 19.25847,-11.56966 z m 132.96666,-7.5977 c 2.16775,-1.74206 3.94136,-3.76706 3.94136,-4.5 0,-2.54462 -2.84891,-1.31121 -5.91597,2.56126 -4.82358,6.09027 -4.08895,6.81154 1.97461,1.93874 z M 764.00894,332.37975 C 768.17802,330.71161 770,328.54046 770,325.24053 c 0,-3.27683 8.78201,-13.47804 14.11236,-16.39297 2.72563,-1.49052 5.82928,-3.75348 6.897,-5.0288 4.74174,-5.66369 21.14389,-31.07184 24.86326,-38.51504 2.25262,-4.50795 5.04721,-9.08276 6.21018,-10.16624 2.40975,-2.24502 7.25742,-12.1306 6.37922,-13.00879 -0.7874,-0.7874 -9.7127,3.97503 -16.54964,8.8307 -4.44181,3.15461 -8.33801,7.81875 -19,22.74484 -7.37681,10.32706 -14.87931,20.41525 -16.67222,22.41821 -3.39357,3.79114 -18.53235,35.59576 -17.63469,37.04821 0.67532,1.0927 0.70773,1.08796 5.40347,-0.7909 z M 490.22251,445.4433 c -2.9963,-2.09869 -2.87873,-5.98022 0.64424,-21.26899 1.82066,-7.9012 3.52097,-12.98123 4.73672,-14.1519 4.65237,-4.47986 60.90957,-5.19529 70.05356,-0.89087 4.81694,2.26751 7.78237,7.26957 6.74948,11.38495 -0.38539,1.5355 -3.47957,4.91633 -7.58566,8.28841 -3.81413,3.1323 -8.92479,7.3444 -11.35702,9.36022 -5.76425,4.77737 -13.08134,6.42958 -34.46383,7.78199 -22.25702,1.40772 -26.14559,1.33964 -28.77749,-0.50381 z M 1224.2202,380.75 c -0.5636,-0.6875 -1.5452,-3.19651 -2.1813,-5.57557 -1.0675,-3.99207 -0.9235,-4.82385 1.8676,-10.78836 6.6992,-14.31584 12.2491,-19.16068 24.5935,-21.4691 9.5267,-1.78152 23.4671,-1.79379 26.7893,-0.0236 3.4835,1.85616 4.8597,5.98296 3.5623,10.68201 -1.9202,6.95425 -7.6608,18.25345 -10.0055,19.69367 -1.2904,0.79259 -6.8461,1.94222 -12.3461,2.55472 -5.5,0.61251 -13.7918,2.25273 -18.4262,3.64494 -9.4394,2.83564 -12.3581,3.10559 -13.8536,1.28129 z"
     id="path4253"
     inkscape:connector-curvature="0" />
</svg>
