<?xml version="1.0" encoding="UTF-8" standalone="no"?>
<!-- Created with Inkscape (http://www.inkscape.org/) -->

<svg
   xmlns:dc="http://purl.org/dc/elements/1.1/"
   xmlns:cc="http://creativecommons.org/ns#"
   xmlns:rdf="http://www.w3.org/1999/02/22-rdf-syntax-ns#"
   xmlns:svg="http://www.w3.org/2000/svg"
   xmlns="http://www.w3.org/2000/svg"
   xmlns:sodipodi="http://sodipodi.sourceforge.net/DTD/sodipodi-0.dtd"
   xmlns:inkscape="http://www.inkscape.org/namespaces/inkscape"
   id="svg4218"
   version="1.1"
   inkscape:version="0.91 r13725"
   width="1642.0298"
   height="227.96545"
   viewBox="0 0 1642.0298 227.96545"
   sodipodi:docname="schneider.svg">
  <metadata
     id="metadata4224">
    <rdf:RDF>
      <cc:Work
         rdf:about="">
        <dc:format>image/svg+xml</dc:format>
        <dc:type
           rdf:resource="http://purl.org/dc/dcmitype/StillImage" />
        <dc:title></dc:title>
      </cc:Work>
    </rdf:RDF>
  </metadata>
  <defs
     id="defs4222" />
  <sodipodi:namedview
     pagecolor="#ffffff"
     bordercolor="#666666"
     borderopacity="1"
     objecttolerance="10"
     gridtolerance="10"
     guidetolerance="10"
     inkscape:pageopacity="0"
     inkscape:pageshadow="2"
     inkscape:window-width="1535"
     inkscape:window-height="876"
     id="namedview4220"
     showgrid="false"
     inkscape:zoom="0.35355339"
     inkscape:cx="792.36455"
     inkscape:cy="-125.31844"
     inkscape:window-x="65"
     inkscape:window-y="24"
     inkscape:window-maximized="1"
     inkscape:current-layer="svg4218"
     fit-margin-top="20"
     fit-margin-left="28"
     fit-margin-right="28"
     fit-margin-bottom="20" />
  <path
     style="fill:#fa9720;fill-opacity:1;fill-rule:evenodd;stroke:none;stroke-width:1px;stroke-linecap:butt;stroke-linejoin:miter;stroke-opacity:1"
     d="m 200.22369,22.23188 15.15152,16.41414 -112.79462,114.89899 -23.98989,8.83839 0.42087,-9.68014 9.68014,-17.67677 z"
     id="path4944"
     inkscape:connector-curvature="0" />
  <rect
     style="fill:#9b8160;fill-opacity:1;stroke:none;stroke-width:60;stroke-linecap:round;stroke-linejoin:round;stroke-miterlimit:4;stroke-dasharray:none;stroke-opacity:1"
     id="rect4927-8"
     width="22.750183"
     height="134.14111"
     x="30.170092"
     y="66.061974"
     rx="1.4142135"
     ry="134.14111" />
  <rect
     style="fill:#9b8160;fill-opacity:1;stroke:none;stroke-width:60;stroke-linecap:round;stroke-linejoin:round;stroke-miterlimit:4;stroke-dasharray:none;stroke-opacity:1"
     id="rect4927"
     width="202.09698"
     height="17.558624"
     x="52.803238"
     y="173.26547"
     rx="2.5"
     ry="8.7793121" />
  <path
     style="fill:#000000"
     d="m 433.64719,207.1333 c -0.43964,-0.43964 -0.39731,-1.42401 0.094,-2.1875 0.49136,-0.76349 1.53479,-3.21628 2.31873,-5.45065 1.42167,-4.05211 1.41474,-4.0625 -2.71166,-4.0625 -2.9419,0 -4.85883,-0.91768 -6.63577,-3.1767 l -2.4988,-3.1767 -4.76092,2.5517 c -5.90146,3.163 -6.00804,3.16085 -9.12424,-0.184 -4.62422,-4.96351 -2.14536,-14.06691 5.70806,-20.96231 4.11355,-3.61175 5.18388,-3.97109 9.68444,-3.25143 2.78287,0.445 5.8299,1.44825 6.77119,2.22944 1.78265,1.47947 1.72597,1.87528 -1.54545,10.79405 -1.0993,2.99699 -1.66117,6.51261 -1.2486,7.8125 0.7828,2.46639 4.92286,3.13914 7.85956,1.27717 2.29346,-1.45414 4.21766,-9.17762 4.86779,-19.53872 0.30197,-4.8125 1.06772,-9.28438 1.70167,-9.9375 0.63395,-0.65312 1.17053,-2.34063 1.19239,-3.75 0.0579,-3.73373 3.02366,-7.1225 5.42642,-6.20047 2.58978,0.99378 2.55798,1.58291 -0.46617,8.63797 -3.644,8.5011 -3.31364,11.26815 1.5625,13.08734 2.23437,0.8336 5.33641,2.01855 6.89341,2.63323 1.557,0.61469 3.46386,2.50679 4.23748,4.20469 3.21727,7.06115 -5.9956,17.50294 -14.77559,16.7465 -4.97365,-0.4285 -5.46733,0.078 -9.03091,9.26574 -1.25672,3.24005 -3.73374,4.42397 -5.51958,2.63815 z m 19.71419,-20.58014 c 2.43017,-2.13372 4.4185,-4.85593 4.4185,-6.04936 0,-3.8238 -10.71885,-7.00535 -11.82093,-3.50865 -0.27084,0.85937 -0.85016,4.23437 -1.28735,7.5 -0.72181,5.39152 -0.56198,5.9375 1.73819,5.9375 1.3932,0 4.52143,-1.74577 6.95159,-3.87949 z m -34.73659,-1.0114 c 1.41148,-1.31499 3.83886,-4.44991 5.3942,-6.9665 2.20397,-3.56607 2.49439,-4.90016 1.31634,-6.04661 -1.16831,-1.13698 -2.76545,-0.0953 -7.0335,4.58744 -5.39959,5.92417 -7.15573,10.81656 -3.88265,10.81656 0.90161,0 2.79414,-1.0759 4.20561,-2.39089 z M 28.3702,201.41412 c -0.33822,-0.88356 -0.4688,-31.90841 -0.29015,-68.94411 l 0.32483,-67.33765 13.125,-0.006 13.125,-0.006 0.3916,4.593 c 0.30302,3.55426 1.0946,4.86029 3.50009,5.77486 2.88285,1.09605 3.08127,1.70412 2.7334,8.37649 -0.31722,6.08443 -0.81174,7.38619 -3.20474,8.43593 l -2.82964,1.2413 0.32964,39.3837 0.32965,39.38251 99.73794,0.31999 99.73792,0.32 -0.36292,10.05495 -0.36294,10.05495 -98.125,-0.0599 c -53.96875,-0.0329 -99.71488,0.3627 -100.51221,0.87913 0,0.83026 -0.007,2.61139 0,4.68487 l 0.0122,3.74599 -14.20985,0.35648 c -9.568751,0.24005 -12.99139,-0.0524 -13.44983,-1.25 z m 23.15968,-67.85647 0,-65.625 -10,0 -10.000001,0 0,65.625 0,65.625 10.000001,0 10,0 z m -13.5,50.375 c -1.773261,-1.77326 -2.161901,-94.27051 -0.407731,-97.0376 0.598651,-0.94433 2.615451,-1.48434 4.668371,-1.25 l 3.61436,0.4126 0.32751,47.97884 c 0.23465,34.37526 -0.0746,48.46328 -1.09056,49.6875 -1.75064,2.10938 -5.11259,2.20802 -7.11195,0.20866 z m 213.8334,-1 -6e-5,-6.875 -97.35418,0 -98.50321,0 0.0506,5.4555 c 0.0279,3.00812 0.0704,7.72274 0.0704,9.35808 1.44187,0 16.663,-0.47298 98.65851,-0.74341 l 97.07802,-0.32017 z m 468.38446,11.41016 c -3.64497,-3.64496 -5.98111,-9.56358 -4.39922,-11.14546 0.47787,-0.47787 1.36676,0.0209 1.97531,1.10822 2.85099,5.09444 6.0531,7.97804 7.39629,6.66062 0.98746,-0.96854 0.49087,-3.32412 -1.78628,-8.47315 -3.55981,-8.04936 -4.06066,-14.75179 -1.27511,-17.06359 2.60854,-2.16489 7.49116,-1.94711 11.22709,0.50076 3.50701,2.29789 4.43188,6.5141 1.15293,5.25584 -5.93273,-2.2766 -7.82237,-2.18754 -9.22583,0.43486 -1.16223,2.17165 -0.83809,3.93394 1.7723,9.63578 3.66758,8.01106 4.18518,14.77839 1.21742,15.91722 -3.29594,1.26478 -4.3184,0.9054 -8.0549,-2.8311 z m 134.0357,-0.0989 c -3.6894,-3.68941 -5.8197,-9.56389 -3.8987,-10.75114 0.5608,-0.34659 1.6067,0.46673 2.3242,1.80737 1.6872,3.15252 4.9312,6.38248 6.4102,6.38248 2.0305,0 1.2477,-4.18281 -1.9695,-10.52435 -3.7479,-7.38746 -3.9671,-12.37835 -0.6876,-15.65784 1.9813,-1.9813 3.1624,-2.22276 6.3711,-1.30251 4.761,1.36541 7.4467,3.44382 7.4467,5.76275 0,2.06812 -0.6428,2.13485 -3.8794,0.4027 -3.5004,-1.87334 -7.3731,-0.31235 -7.3584,2.96599 0.01,1.50053 1.413,5.73723 3.125,9.41488 3.4242,7.35565 3.9008,11.40037 1.6128,13.68838 -2.4509,2.45087 -5.5774,1.73029 -9.4964,-2.18871 z m 117.9423,0.91057 c -1.0702,-1.52796 -1.9459,-4.05921 -1.9459,-5.625 0,-3.5074 -1.7596,-3.6107 -5.9089,-0.34686 -10.5622,8.30819 -12.5338,-3.43122 -4.0817,-24.30313 2.8,-6.91453 5.9176,-13.67128 6.928,-15.01501 1.6386,-2.17915 2.041,-2.23912 3.7251,-0.55512 1.646,1.64602 1.6619,2.3597 0.1241,5.56814 -5.9997,12.51743 -10.4252,25.08312 -9.2485,26.25986 0.4567,0.45665 2.342,-0.35885 4.1897,-1.81224 1.8476,-1.45337 4.059,-2.6425 4.9142,-2.6425 2.1167,0 4.7649,6.74903 3.8183,9.73138 -0.4633,1.45988 0.01,3.06033 1.1965,4.04502 1.6251,1.34871 2.6853,1.28506 6.1551,-0.36954 3.3979,-1.62036 4.3503,-2.93791 5.0295,-6.95747 1.0263,-6.0746 8.097,-14.72338 12.8614,-15.7318 4.34756,-0.92022 10.36596,0.70751 11.96006,3.23472 0.881,1.39662 0.4294,3.6007 -1.5942,7.78079 -3.6193,7.4765 -2.7755,12.58682 1.9298,11.68735 2.6245,-0.50169 3.0718,-0.16835 2.7549,2.0528 -0.5764,4.03967 -5.71,4.19261 -9.3396,0.27824 l -2.9844,-3.21851 -4.51126,2.41793 c -2.8568,1.53118 -5.7888,2.16244 -7.9946,1.72128 -2.4971,-0.49942 -4.2849,0.05 -6.3141,1.94057 -3.7444,3.48839 -9.1673,3.42288 -11.6635,-0.1409 z m 27.94786,-13.02285 c 4.7395,-5.38437 6.6551,-10.44901 3.9521,-10.44901 -3.7385,0 -13.46916,12.57579 -11.80896,15.26191 1.1857,1.9186 2.8043,0.9271 7.85686,-4.8129 z m -639.85426,11.11352 c 0.0217,-1.20313 2.7595,-7.25 6.08401,-13.4375 3.32451,-6.1875 8.68133,-16.17188 11.90404,-22.1875 5.83942,-10.90001 9.47249,-13.88993 9.47249,-7.79554 0,1.72808 -0.52624,4.1187 -1.1694,5.3125 -1.53041,2.8406 -6.7023,25.34052 -5.98883,26.05398 2.1454,2.14541 13.53489,-12.35125 19.00984,-24.19594 2.9937,-6.47666 5.94396,-8.35267 7.35459,-4.67665 0.39801,1.03723 0.147,3.40263 -0.55783,5.25644 -2.08082,5.47297 -5.89906,29.8484 -5.22658,33.36622 0.43742,2.28823 0.0844,3.24149 -1.20043,3.24149 -2.57959,0 -4.72136,-5.4136 -4.72136,-11.93381 0,-3.0614 -0.42188,-5.55608 -0.9375,-5.54373 -0.51563,0.0125 -2.7623,2.8133 -4.99262,6.22433 -6.48459,9.91748 -14.06988,9.8367 -14.06988,-0.14984 0,-2.66583 -0.49876,-4.84695 -1.10835,-4.84695 -0.6096,0 -3.00022,3.92326 -5.3125,8.71836 -2.80445,5.81574 -4.93244,8.7289 -6.39165,8.75 -1.27665,0.0185 -2.17107,-0.87921 -2.14804,-2.15586 z m 128.42045,-0.3125 c -1.8773,-3.00604 -4.27867,-3.1471 -9.47186,-0.5564 -5.54556,2.76649 -8.93916,0.75136 -9.13615,-5.42507 -0.22039,-6.90979 0.0875,-8.01793 3.46828,-12.48174 5.03216,-6.64429 8.43487,-8.30264 14.40132,-7.01865 7.30988,1.5731 8.31604,3.8603 4.89751,11.1329 -3.38676,7.20504 -2.7492,11.84896 1.62675,11.84896 3.76646,0 5.01662,-1.59259 7.68928,-9.7955 1.19535,-3.66877 3.0771,-6.93104 4.18166,-7.24946 1.10456,-0.31844 4.13141,-1.70079 6.72634,-3.0719 7.29157,-3.85275 10.23709,-0.1356 3.71946,4.69383 -1.89063,1.40093 -5.40625,6.00937 -7.8125,10.24099 -3.61886,6.36413 -4.83636,7.58691 -7.04448,7.07504 -1.5111,-0.3503 -3.34036,0.18955 -4.21555,1.24409 -2.20347,2.65501 -7.19399,2.30292 -9.03006,-0.63709 z m -7.60511,-9.0625 c 5.02038,-5.30406 7.2206,-9.6121 5.69059,-11.14211 -2.52305,-2.52305 -13.97504,11.03462 -12.00852,14.21652 1.06775,1.72765 2.37464,1.0917 6.31793,-3.07441 z m 50.82263,9.68966 c -2.34865,-0.98753 -4.72218,-3.50625 -6.28964,-6.67436 -2.31248,-4.67394 -2.38805,-5.72916 -0.92806,-12.95805 2.36773,-11.72348 4.03705,-16.58569 6.9778,-20.32424 2.22145,-2.82412 2.92208,-3.09661 4.33335,-1.68535 1.41126,1.41125 1.18621,2.66559 -1.39188,7.75796 -3.25857,6.43653 -5.19929,14.10325 -3.89913,15.40343 0.42899,0.42899 2.04339,-0.37634 3.58756,-1.78962 4.99039,-4.56739 8.02975,-4.70207 12.19162,-0.54019 4.87263,4.87262 4.87403,9.48904 0.005,15.39639 -4.76949,5.78621 -9.51342,7.54702 -14.58631,5.41403 z m 5.69902,-6.18827 c 6.53305,-3.37838 9.78676,-11.93889 4.53777,-11.93889 -2.46586,0 -11.91422,9.41725 -11.91422,11.875 0,2.36966 2.86951,2.39452 7.37645,0.0639 z m 21.2774,4.40726 c -2.98911,-2.9891 -3.65385,-4.70964 -3.65385,-9.45717 0,-6.64945 1.43698,-9.88043 6.50184,-14.61904 5.40501,-5.05686 11.57469,-6.74874 15.42068,-4.22875 4.15682,2.72365 3.87088,5.71742 -0.98502,10.31361 -5.51783,5.22271 -9.0447,6.85416 -12.78685,5.91494 -2.91124,-0.73068 -3.15065,-0.46326 -3.15065,3.51911 0,5.43891 3.92535,7.70334 10.22281,5.89725 5.55567,-1.59334 7.27719,-1.49412 7.27719,0.41939 0,2.38306 -6.6878,5.89451 -11.22653,5.89451 -2.71656,0 -5.11673,-1.15095 -7.61962,-3.65385 z m 11.79819,-20.72115 c 0.91282,-2.3788 -0.53725,-2.39459 -3.65063,-0.0398 -2.37708,1.79792 -2.37195,1.83605 0.25235,1.875 1.47333,0.0219 3.00254,-0.804 3.39828,-1.83525 z m 101.4748,21.1878 -2.9538,-3.1872 -4.78051,2.5622 c -2.62928,1.40921 -5.1888,2.5622 -5.68783,2.5622 -1.97773,0 -6.0047,-5.6404 -6.0047,-8.4105 0,-7.33231 9.63236,-19.0895 15.63954,-19.0895 4.23173,0 9.30781,2.15831 10.13288,4.30845 0.3896,1.01528 -0.18731,3.64139 -1.28202,5.8358 -1.09473,2.19441 -1.9904,6.22374 -1.9904,8.95405 0,4.84911 0.087,4.94681 3.75,4.2142 3.99977,-0.79995 5.0862,1.1013 2.25,3.9375 -2.39788,2.39787 -5.88888,1.74871 -9.07316,-1.6872 z m -7.94751,-7.7503 c 5.58632,-6.00649 7.81689,-10.26628 6.21473,-11.86844 -2.3732,-2.3732 -12.69406,9.00447 -12.69406,13.99386 0,2.4135 3.24917,1.34767 6.47933,-2.12542 z m 22.82601,8.15937 c -3.0194,-2.37506 -3.28507,-3.22242 -2.66135,-8.48868 1.16507,-9.83729 7.58247,-18.75673 11.02112,-15.31808 1.14523,1.14523 0.76106,2.57623 -1.68312,6.26965 -3.71394,5.61214 -5.46975,12.21173 -3.56253,13.39046 2.25876,1.39599 10.29236,-5.86212 12.6966,-11.471 2.46138,-5.74213 3.68151,-6.43421 6.13394,-3.47922 1.0515,1.26699 1.15399,2.38167 0.31604,3.4375 -0.68203,0.85937 -1.61751,3.65781 -2.07883,6.21875 -0.67356,3.7391 -0.35795,5.06795 1.60224,6.74632 2.57903,2.20823 2.27634,5.47243 -0.50746,5.47243 -0.9078,0 -2.83125,-1.50103 -4.27434,-3.33563 l -2.6238,-3.33561 -3.40442,2.48253 c -5.49573,4.00752 -7.36685,4.24803 -10.97409,1.41058 z m 70.69466,0.8895 c 0,-2.36237 4.34062,-11.77607 9.21565,-19.98637 2.04108,-3.4375 6.07041,-10.75 8.95409,-16.25 4.9224,-9.38848 9.33026,-13.51453 9.33026,-8.73376 0,1.91261 -3.55471,15.99897 -6.32709,25.07251 -1.49856,4.90454 -1.49529,8.03625 0.009,8.03625 2.27698,0 12.85684,-14.36799 16.75629,-22.75585 2.1655,-4.65826 4.5716,-8.47509 5.3468,-8.48185 2.5847,-0.0225 4.4738,3.41459 3.2126,5.8453 -2.1897,4.22026 -6.6825,30.45224 -5.8583,34.20475 0.5513,2.51 0.3232,3.68765 -0.7141,3.68765 -2.8849,0 -4.84519,-4.38919 -4.88486,-10.9375 -0.0219,-3.60937 -0.46163,-6.55014 -0.97725,-6.53502 -0.51563,0.0151 -2.60922,2.51812 -4.6524,5.56223 -6.93667,10.33479 -13.43729,10.72268 -14.16948,0.84549 -0.21174,-2.85186 -0.88216,-5.1852 -1.49015,-5.1852 -0.608,0 -2.96627,3.92059 -5.24062,8.71241 -2.76585,5.82738 -4.85957,8.72486 -6.32269,8.75 -1.20313,0.0206 -2.1875,-0.81229 -2.1875,-1.85104 z m 53.4375,0.53849 c -3.1178,-1.81591 -5.9383,-7.83002 -5.9328,-12.65028 0.013,-10.57435 13.145,-21.81693 21.69026,-18.56803 5.2653,2.00187 4.3634,6.42436 -2.5516,12.51116 -4.57646,4.02845 -6.69386,5.07619 -9.68746,4.79374 -3.464,-0.32684 -3.8671,0.01 -4.2093,3.52213 -0.3162,3.24568 0.1971,4.12022 3.125,5.32438 2.4776,1.01895 4.782,1.07134 7.87016,0.17894 5.7209,-1.65325 6.2582,-1.60337 6.2582,0.581 0,4.16043 -11.62426,7.18324 -16.56246,4.30696 z m 9.7173,-22.87605 c 0.94936,-0.94941 1.41106,-2.0413 1.02586,-2.42643 -0.8446,-0.84459 -5.43066,1.86053 -5.43066,3.20331 0,1.53653 2.5392,1.08869 4.4048,-0.77688 z m 87.21926,21.41369 c -3.5789,-3.9293 -5.3741,-7.73963 -5.3741,-11.40655 0,-4.19734 -1.3086,-4.7751 -8.6192,-3.80531 -6.634,0.88002 -7.6869,2.14686 -9.527,11.46186 -1.3569,6.86952 -4.1787,5.01471 -4.6039,-3.0263 -0.3396,-6.42216 -0.6502,-7.10861 -3.3023,-7.29956 -3.0047,-0.21634 -5.5141,-2.83824 -4.4164,-4.61445 0.339,-0.54845 1.9528,-0.99719 3.5862,-0.99719 6.0152,0 8.8444,-2.06476 10.5371,-7.69014 0.8995,-2.98917 2.201,-6.98174 2.8921,-8.87236 2.9013,-7.93601 5.8519,-0.5569 3.0404,7.60355 -1.6804,4.87765 -1.6459,5.35704 0.4671,6.48789 4.3761,2.34206 12.0122,1.42456 15.9883,-1.92104 3.6449,-3.06704 11.3381,-6.8579 13.9175,-6.8579 0.7095,0 2.4246,1.13452 3.8113,2.52116 2.3546,2.35459 2.3935,2.76787 0.5901,6.25533 -2.4229,4.68537 -10.8977,10.44306 -13.9652,9.48782 -5.9459,-1.8516 -7.3431,6.10865 -1.5573,8.87248 2.3792,1.13653 4.447,1.19472 7.9624,0.22407 6.4684,-1.78601 8.3217,0.24134 3.4146,3.73544 -4.9769,3.54391 -11.5331,3.47376 -14.8417,-0.1588 z m 10.901,-21.59271 c 2.5239,-3.04122 0.4203,-3.60714 -2.6782,-0.72048 -2.1648,2.01683 -2.3643,2.62569 -0.8607,2.62569 1.0767,0 2.6692,-0.85734 3.5389,-1.90521 z m 118.17076,21.62707 c -1.0702,-1.52796 -1.9459,-3.77796 -1.9459,-5 0,-3.21702 -2.2045,-2.74025 -7.066,1.52814 -4.635,4.06964 -6.6156,4.56842 -8.934,2.25 -2.8225,-2.82253 -0.6684,-16.08161 3.2492,-19.99918 2.0159,-2.01591 3.2445,1.7227 2.3591,7.17879 -0.8894,5.48079 0.5778,5.46766 6.1,-0.0546 2.4063,-2.40625 4.8063,-4.375 5.3334,-4.375 2.4307,0 3.9583,3.5157 3.9583,9.10987 l 0,6.10988 5,-0.84475 c 4.0242,-0.67988 5,-0.4712 5,1.06925 0,2.47813 -4.7757,5.80575 -8.3322,5.80575 -1.5268,0 -3.6517,-1.25017 -4.7219,-2.77815 z m -430.64248,-0.28259 c -0.94809,-1.14237 -1.18802,-3.7298 -0.66764,-7.19988 0.79572,-5.30632 0.72748,-5.44163 -3.34921,-6.64054 -6.04385,-1.77744 -5.33692,-4.7247 1.46351,-6.10148 3.09375,-0.62633 5.83565,-1.30826 6.09312,-1.51537 0.25747,-0.20713 1.75388,-4.19718 3.32534,-8.86679 2.88355,-8.56845 5.84171,-11.06526 6.61801,-5.58586 0.22632,1.59739 -0.44141,5.03591 -1.48382,7.64117 -2.49815,6.24349 -1.05326,7.57948 8.19735,7.57948 5.51074,0 7.25,0.43622 7.25,1.81836 0,1.78995 -0.96823,2.07118 -14.17941,4.11843 -5.65352,0.87609 -6.16959,1.2693 -7.79368,5.93821 -0.9566,2.75 -1.74774,5.95118 -1.75809,7.11373 -0.0263,2.94755 -1.94987,3.82797 -3.71548,1.70054 z m 448.26528,-0.4752 c -4.442,-4.90841 -0.7313,-15.7811 7.2532,-21.25215 3.251,-2.22761 5.1569,-2.68848 8.5137,-2.05873 4.268,0.80067 4.3478,0.73441 6.0458,-5.01622 0.9464,-3.20517 3.2322,-7.61282 5.0796,-9.79478 l 3.3589,-3.96719 2.8245,2.76915 c 3.1784,3.11613 2.7971,4.4841 -4.1686,14.95608 -3.9804,5.98378 -4.7829,15.69377 -1.6405,19.84836 2.3725,3.1367 2.3718,4.30141 0,4.30141 -1.0546,0 -3.0788,-1.96875 -4.4985,-4.375 -1.4198,-2.40625 -3.0067,-4.375 -3.5265,-4.375 -0.5199,0 -2.2925,1.58319 -3.9392,3.5182 -6.4375,7.56518 -11.6901,9.43478 -15.3,5.44588 z m 15.8839,-17.76146 c -2.5631,-2.56309 -12.9448,8.27624 -10.9767,11.4606 0.5142,0.832 3.0736,-0.87064 6.5808,-4.37781 4.0923,-4.09235 5.3538,-6.12486 4.3959,-7.08279 z m -486.43846,16.2557 c -1.3265,-2.12405 -1.1457,-3.92124 1.10034,-10.9375 3.91239,-12.22175 4.69318,-14.02081 6.08499,-14.02081 2.72794,0 2.73947,6.5477 0.027,15.32131 -1.53949,4.97953 -2.99006,9.75681 -3.2235,10.61619 -0.62278,2.2927 -2.185,1.9092 -3.98883,-0.97919 z m 250.5149,0.61729 c -1.2086,-3.14954 -0.9447,-5.98599 1.2322,-13.24456 2.3719,-7.90884 4.3403,-12.33104 5.4888,-12.33104 0.4552,0 1.5107,1.2764 2.3456,2.83644 1.2388,2.31479 1.1296,3.75156 -0.5936,7.8125 -1.1614,2.73683 -2.7609,7.46947 -3.5545,10.51697 -1.5316,5.88133 -3.6314,7.76388 -4.9185,4.40969 z m 96.8717,0.23094 c -0.9984,-1.20299 -1.101,-2.73013 -0.3178,-4.72914 0.6362,-1.62381 1.8679,-5.34302 2.737,-8.2649 1.1063,-3.7193 2.2609,-5.3125 3.85,-5.3125 1.2483,0 4.0672,-1.09316 6.2643,-2.42925 2.8765,-1.74932 4.6154,-2.09699 6.2128,-1.2421 1.9683,1.05341 1.5569,1.85509 -3.6519,7.11675 -3.2286,3.26128 -6.9984,8.13384 -8.3775,10.82791 -2.8425,5.55294 -4.5866,6.60015 -6.7169,4.03323 z M 72.77988,164.16569 c 0,-0.69683 0.50094,-2.2437 1.1132,-3.4375 0.61226,-1.1938 2.24225,-4.70179 3.62221,-7.79554 1.37995,-3.09375 3.55089,-7.96341 4.8243,-10.82147 2.75503,-6.18343 7.89213,-11.65141 69.59954,-74.08235 L 199.41133,20 l 8.55927,9.02955 c 4.7076,4.96626 8.55928,9.5495 8.55928,10.185 0,0.98646 -37.18575,39.20415 -98.70625,101.44543 -10.90338,11.03111 -16.80925,16.09126 -19.41875,16.638 -2.0625,0.43212 -4.72674,1.31419 -5.92054,1.96017 -1.1938,0.64598 -3.20942,1.1745 -4.47916,1.1745 -1.26975,0 -2.69414,0.3855 -3.1653,0.85668 -0.89931,0.8993 -9.50934,4.09212 -11.1225,4.1245 -0.51563,0.01 -0.9375,-0.55132 -0.9375,-1.24814 z m 19.0625,-7.56028 c 3.26562,-0.9452 5.92592,-2.01762 5.91179,-2.38316 -0.0141,-0.36552 -2.5047,-3.4771 -5.53459,-6.9146 -5.35564,-6.07614 -5.56246,-6.18045 -7.43454,-3.75 -1.05911,1.375 -1.94354,3.45118 -1.96541,4.61373 -0.0219,1.16255 -0.60225,2.46137 -1.28975,2.88627 -2.87318,1.77572 -0.0478,8.83785 3.08983,7.72298 0.70683,-0.25118 3.95704,-1.23003 7.22267,-2.17522 z m 51.70831,-46.48526 c 22.64741,-22.85938 47.55723,-48.1302 55.35514,-56.1574 l 14.17802,-14.59489 -6.0154,-6.96761 c -3.30846,-3.83218 -6.68456,-6.9676 -7.50245,-6.9676 -1.39503,0 -109.47948,108.98885 -110.28318,111.20599 -0.29688,0.81897 11.82853,15.04401 12.8235,15.04401 0.14699,0 18.79696,-18.70313 41.44437,-41.5625 z m 452.20419,45.99736 c -0.38309,-0.99834 -0.31536,-2.4319 0.15051,-3.1857 1.06814,-1.72826 4.37449,0.75001 4.37449,3.27889 0,2.28966 -3.63938,2.2147 -4.525,-0.0931 z m 249.99996,0 c -0.3831,-0.99834 -0.3154,-2.4319 0.1505,-3.1857 1.0682,-1.72826 4.3745,0.75001 4.3745,3.27889 0,2.28966 -3.6394,2.2147 -4.525,-0.0931 z"
     id="path4768"
     inkscape:connector-curvature="0"
     sodipodi:nodetypes="ccssscssssssssssssssssssccsscssssssssscscccsssscccccccscscscccccccccccssscscsccccscsccsscsssssssssssssssssscssscsssscsccscsscsccscscssccsscsssssssscsssscsssscssssssssscsssssssssscsssssssscccssssssssssssssscscccscsssssssssssssssssssssssssscsscsssssccsssscscsscccccssscssscccscssscsscscccscscsssscscsscsscssscsscsssssssscssssssscscsssscscsscscccccscsssssssssscsscssscssscssssscssssssccsscsscscssscssssscsscccsscc" />
  <path
     style="fill:#d5272e;fill-opacity:1;stroke:none"
     d="m 1039.0298,137.89631 c -1.491,-1.1259 -1.1614,-1.25987 1.6093,-0.6542 7.8298,1.71158 18.5299,-3.84564 21.6132,-11.22496 3.9472,-9.44696 -2.5894,-18.0432 -20.8594,-27.43235 -6.456,-3.31775 -14.1155,-7.65219 -17.0213,-9.63209 -9.7151,-6.61965 -14.4972,-18.91943 -11.5948,-29.82257 2.0733,-7.78838 6.3474,-12.89799 13.9635,-16.69326 8.6307,-4.30084 17.2809,-4.34181 27.2895,-0.12923 8.0765,3.39934 11.2878,3.83723 13.3101,1.8149 0.9134,-0.91345 1.5503,1.80519 2.1035,8.97975 0.4365,5.65941 0.5864,10.49706 0.333,10.75034 -0.2532,0.25327 -1.7027,-2.10585 -3.2212,-5.24249 -3.0657,-6.33295 -10.8959,-13.3069 -17.3994,-15.49676 -13.0217,-4.38465 -25.126,2.30191 -25.126,13.87987 0,6.04778 7.3737,12.97566 21.7042,20.39183 14.5304,7.51966 21.1892,12.0828 25.0181,17.14432 9.8272,12.99084 5.3508,32.22594 -9.3635,40.23447 -6.9955,3.80741 -19.2005,5.51732 -22.3588,3.13243 z m 67.5193,-1.57769 c -6.3677,-3.13618 -13.0512,-11.22349 -14.9623,-18.10504 -1.6354,-5.88864 -1.6709,-19.54615 -0.066,-25.32408 5.0007,-18.00062 23.4893,-27.34809 39.6132,-20.02763 11.269,5.11633 12.45,20.07078 1.5849,20.07078 -4.4064,0 -6.964,-3.4376 -8.1675,-10.97748 -2.2435,-14.05621 -14.9975,-11.71673 -18.1199,3.32375 -2.8365,13.66363 2.2418,33.51385 10.5584,41.2708 4.9596,4.62594 13.8342,5.02073 19.8893,0.88479 4.0302,-2.75271 4.5332,-2.86893 3.4208,-0.79039 -3.1572,5.89943 -16.1525,12.5937 -24.2403,12.487 -2.148,-0.0284 -6.428,-1.29396 -9.5111,-2.8125 z m 223.2147,0.40202 c -6.5408,-3.36843 -9.2336,-5.9494 -12.4295,-11.91299 -2.2971,-4.28654 -2.6795,-7.0652 -2.6795,-19.47303 0,-13.9157 0.1444,-14.70386 3.75,-20.46748 5.3175,-8.50024 12.6854,-13.46369 21.0105,-14.15406 13.6179,-1.12932 23.6575,8.14444 25.4805,23.53677 l 0.7322,6.1828 -17.5403,0 c -19.7409,0 -19.4627,-0.14415 -17.7209,9.17878 1.3539,7.24736 2.9005,10.32358 7.7854,15.48517 5.6117,5.92964 11.1241,7.41826 17.2466,4.65741 2.6845,-1.21057 4.881,-2.67812 4.881,-3.2612 0,-0.58308 0.6007,-1.06016 1.3351,-1.06016 0.7343,0 0.125,1.70024 -1.3552,3.7783 -5.977,8.39381 -21.4028,12.19248 -30.4959,7.50969 z m 21.764,-45.97549 c 0,-8.41168 -2.8791,-15.05863 -7.6665,-17.71281 -2.9393,-1.62959 -3.6422,-1.59744 -6.5365,0.29895 -4.5331,2.97021 -7.2064,8.76666 -7.9805,17.30405 l -0.6617,7.29731 11.4236,0 11.4236,0 0,-7.1875 z m 80.5753,46.08792 c -10.0705,-4.57441 -15.5733,-15.57137 -15.5733,-31.12241 0,-15.63181 5.3961,-27.3683 14.8841,-32.37241 7.3925,-3.89896 14.6673,-3.82158 20.622,0.2194 7.9495,5.39472 8.2439,4.97913 8.2439,-11.6393 0,-13.13051 -0.282,-15.06703 -2.5487,-17.5 l -2.5487,-2.7357 11.2987,0 11.2987,0 0,43.51109 c 0,44.78726 0.1776,46.49458 5,48.05996 1.0313,0.33475 -0.375,1.0095 -3.125,1.49944 -2.75,0.48992 -7.9475,1.59886 -11.55,2.46427 -3.6025,0.86543 -6.8369,1.28664 -7.1875,0.93604 -0.3506,-0.35061 -0.6375,-2.23121 -0.6375,-4.17914 0,-4.6801 -3.2307,-4.63916 -7.8776,0.0999 -5.3704,5.47685 -12.2555,6.41264 -20.2991,2.75894 z m 23.3237,-8.75336 4.853,-4.85295 0,-19.43305 0,-19.43306 -4.1295,-4.37857 c -8.1665,-8.65902 -16.1124,-7.22339 -19.9507,3.60462 -1.7627,4.97232 -2.1259,9.35707 -1.8103,21.84595 0.2484,9.82863 1.0085,16.78427 2.0489,18.75 5.3789,10.16256 11.4726,11.41318 18.9886,3.89706 z m 58.7944,9.39827 c -2.3009,-0.83297 -6.0953,-3.33352 -8.4319,-5.55678 -6.8305,-6.49917 -8.4651,-11.56026 -8.5552,-26.48855 -0.075,-12.42755 0.1262,-13.49032 3.7871,-20 6.9256,-12.31476 20.7794,-18.05411 32.1307,-13.3112 7.8714,3.28884 13.1732,11.518 15.1978,23.58908 l 0.7804,4.65287 -17.8627,0.34713 -17.8626,0.34712 0.1523,6.29819 c 0.2632,10.8916 7.9,21.764 16.6342,23.68236 4.3668,0.95911 11.7428,-2.1005 14.478,-6.00559 0.9916,-1.41577 2.1575,-2.21967 2.5906,-1.78645 0.4333,0.43323 -1.96,3.5354 -5.3182,6.89372 -8.3025,8.30241 -17.98,10.86421 -27.7205,7.3381 z m 19.8086,-47.08548 c 0,-13.32401 -5.7071,-21.06709 -13.0589,-17.71741 -4.2161,1.921 -6.7448,6.19282 -8.4346,14.24853 -2.1987,10.48247 -1.6807,11.00903 10.8293,11.00903 l 10.6642,0 z m -286.875,46.22474 c -7.5625,-0.37973 -12.7882,-0.8016 -11.6126,-0.9375 3.9261,-0.4539 4.9639,-8.27576 4.5269,-34.12067 -0.3118,-18.43802 -0.8387,-25.00916 -2.1298,-26.5625 -1.571,-1.88997 -0.8599,-2.06392 8.4375,-2.06392 9.9965,0 10.153,0.0481 10.153,3.125 0,3.80824 2.2851,4.01208 6.6334,0.59174 8.2581,-6.4958 18.3061,-7.96559 23.9745,-3.50687 6.1074,4.804 6.8921,8.76101 6.8921,34.74998 0,22.12349 0.1751,23.96529 2.5,26.29015 2.5,2.5 2.5,2.5 -10.7142,2.5 -12.0077,0 -13.0352,-0.1792 -11.2519,-1.96241 3.0981,-3.09816 3.4035,-6.18688 2.9848,-30.19393 -0.3508,-20.1298 -0.6528,-22.87422 -2.775,-25.21595 -3.6251,-4.00044 -7.8706,-3.29495 -13.3907,2.22523 l -4.853,4.85295 0,22.64705 c 0,21.28236 0.1569,22.80398 2.6041,25.25122 1.4324,1.4323 2.4168,2.69793 2.1875,2.8125 -0.2291,0.11463 -6.6041,-0.10237 -14.1666,-0.48207 z M 281.5299,123.65989 c 0,-7.16253 -0.34143,-13.91253 -0.75874,-15 -0.4173,-1.08749 -0.13605,-1.97724 0.625,-1.97724 0.76107,0 1.38374,0.79711 1.38374,1.77136 0,3.79936 5.37464,14.08884 9.76266,18.69015 2.53679,2.66008 6.86234,5.8821 9.61234,7.16004 4.23113,1.96624 4.52587,2.32776 1.91679,2.351 -1.69576,0.0151 -5.53877,-0.91034 -8.53999,-2.05651 -5.09366,-1.94529 -5.69155,-1.94529 -8.98466,0 -1.94033,1.14617 -3.86295,2.08396 -4.2725,2.08396 -0.40955,0 -0.74464,-5.86025 -0.74464,-13.02276 z m 43.85944,10.17274 c 5.17393,-3.48672 7.3479,-7.53862 7.37214,-13.7404 0.0274,-7.00673 -7.09835,-14.0768 -21.84298,-21.67239 -17.34015,-8.93264 -22.79712,-13.25755 -26.3465,-20.88085 -6.5503,-14.06868 -1.64516,-28.21854 12.16838,-35.10211 8.63067,-4.30084 17.28088,-4.34181 27.28952,-0.12923 7.91533,3.33151 11.8752,3.89721 13.125,1.875 1.98743,-3.21572 2.74678,-0.29945 2.84794,10.9375 0.085,9.44659 -0.17853,11.4847 -1.172,9.0625 -6.04645,-14.74185 -15.76121,-22.5 -28.17454,-22.5 -8.33481,0 -16.6264,6.98217 -16.6264,14.00075 0,8.15867 5.01735,12.85704 25.17724,23.57652 10.49794,5.58202 16.59858,9.70587 19.91156,13.45965 8.71986,9.88007 9.35896,23.69878 1.58345,34.23789 -3.83201,5.19402 -11.23012,9.71049 -15.9196,9.71879 l -3.62236,0.006 4.22915,-2.85002 z m 45.48541,-1.09413 c -17.30199,-15.19135 -13.70608,-50.06536 6.11387,-59.29389 8.15302,-3.7962 16.8468,-3.93423 24.18072,-0.38395 11.20725,5.42534 12.45402,19.87199 1.71501,19.87199 -4.66655,0 -7.20479,-3.17476 -8.26385,-10.33621 -2.12409,-14.36314 -14.68736,-12.76338 -18.12493,2.30795 -2.50731,10.99287 1.39803,30.5683 7.69569,38.5745 5.84559,7.43146 15.24401,8.98674 22.902,3.78989 l 4.66224,-3.16388 -2.63516,3.70075 c -4.97393,6.98521 -9.74375,8.877 -22.38199,8.877 -10.9769,0 -11.52733,-0.13685 -15.8636,-3.94415 z m 55.43305,2.85787 c 3.15565,-2.00081 3.91246,-10.97879 3.91246,-46.41372 0,-35.43492 -0.75681,-44.41291 -3.91246,-46.41372 -0.96335,-0.61079 2.90996,-1.05598 9.2846,-1.06714 l 10.9375,-0.0191 0,18.05122 c 0,11.19272 0.49582,18.35767 1.30498,18.85775 0.71772,0.44359 2.73818,-0.22635 4.4899,-1.48872 10.00517,-7.21029 16.91493,-8.43843 23.81285,-4.23246 6.80473,4.14913 7.21283,5.91904 7.89227,34.22788 0.57439,23.93184 0.8215,26.18417 3.05141,27.8125 2.14893,1.5692 0.8708,1.77183 -11.17641,1.77183 -12.04791,0 -13.32546,-0.20256 -11.17641,-1.77205 2.23697,-1.63371 2.45631,-3.71176 2.8094,-26.61682 0.36621,-23.75724 0.26649,-24.99287 -2.27823,-28.22795 -3.81556,-4.8507 -7.9995,-4.40755 -13.87682,1.46976 l -4.85294,4.85295 0,22.64705 c 0,20.9804 0.18399,22.83105 2.5,25.14706 2.5,2.5 2.5,2.5 -10.9375,2.48086 -7.7203,-0.0113 -12.73425,-0.46503 -11.7846,-1.06713 z m 81.4721,-1.41372 c 2.34807,-2.34808 2.5,-4.16666 2.5,-29.92623 0,-16.9358 -0.47813,-27.72172 -1.25,-28.19877 -3.27235,-2.02243 -0.42982,-3.125 8.05651,-3.125 l 9.30651,0 0.38099,5.83979 c 0.41101,6.29993 2.28554,8.06318 4.9567,4.66245 8.05018,-10.24892 17.19689,-15.24245 22.19084,-12.11483 2.44662,1.53228 3.3487,11.08948 1.28177,13.57996 -2.09252,2.52135 -6.54242,2.21034 -10.26441,-0.71737 -4.27879,-3.3657 -7.4215,-3.14651 -11.36033,0.79234 -4.8129,4.81288 -6.24592,11.5953 -6.33982,30.00605 -0.0738,14.46475 0.20023,16.73811 2.29748,19.0625 l 2.38123,2.63911 -13.31873,0 c -13.31874,0 -13.31874,0 -10.81874,-2.5 z m 66.54189,-1.76001 c -13.37949,-12.08755 -12.98128,-42.63213 0.71255,-54.65545 15.01211,-13.18082 34.06273,-7.88463 39.76248,11.05421 3.59582,11.94799 4.20927,11.4944 -16.07942,11.88943 l -17.8125,0.34682 0.18425,5.72596 c 0.22854,7.10216 5.31734,17.50084 10.30101,21.04954 7.44731,5.30295 13.04389,4.69385 20.58843,-2.24074 l 3.5737,-3.28476 -2.46904,4.11835 c -1.35797,2.26509 -4.34105,5.49946 -6.62905,7.1875 -3.71495,2.74081 -5.40404,3.06915 -15.78855,3.06915 -11.47425,0 -11.69111,-0.0565 -16.34386,-4.26001 z m 27.54606,-43.73305 c -0.30788,-9.24342 -2.29015,-13.7414 -7.002,-15.88827 -8.25124,-3.75951 -15.57912,7.69234 -14.7126,22.99249 0.11313,1.99756 1.29374,2.19764 11.06415,1.875 l 10.9375,-0.36116 z m 28.58608,45.60411 c 2.93601,-2.37685 2.95097,-2.52545 2.95097,-29.3115 0,-19.87081 -0.40926,-27.33205 -1.5625,-28.48604 -3.02826,-3.03022 -1.4669,-3.66507 8.125,-3.30359 l 9.6875,0.36508 0.31169,29.375 c 0.29894,28.17265 0.41972,29.46454 2.95098,31.5625 2.54599,2.11017 2.14345,2.1875 -11.38767,2.1875 -14.00567,0 -14.02249,-0.004 -11.07597,-2.38895 z m 40.52456,0.61679 c 2.24676,-1.64094 2.45477,-3.72647 2.80944,-28.16717 0.31013,-21.37263 0.031,-27.10051 -1.4667,-30.10283 l -1.84972,-3.70784 9.90419,0 c 9.73115,0 9.9042,0.0546 9.9042,3.125 0,4.29637 2.80444,4.00267 8.95184,-0.9375 4.41651,-3.54921 5.98356,-4.0625 12.40266,-4.0625 6.63045,0 7.7462,0.39857 11.43396,4.08452 l 4.08654,4.08453 0.625,26.95599 c 0.57591,24.83893 0.81556,27.09516 3.05141,28.72797 2.14979,1.56998 0.89733,1.77199 -10.9862,1.77199 l -13.4126,0 2.54869,-2.7357 c 2.38123,-2.55594 2.5487,-4.31086 2.5487,-26.70642 0,-22.3578 -0.17432,-24.19236 -2.59073,-27.2643 -3.74174,-4.75688 -7.96736,-4.27962 -13.80633,1.55936 l -4.85294,4.85295 0,22.64705 c 0,20.9804 0.18399,22.83105 2.5,25.14706 2.5,2.5 2.5,2.5 -10.86391,2.5 -11.842,0 -13.08759,-0.20181 -10.9375,-1.77216 z m 85.53535,-2.94978 c -5.74405,-5.74406 -8.73394,-14.82539 -8.73394,-26.52806 0,-16.04686 5.54962,-26.70996 16.83446,-32.34587 15.64,-7.81101 31.79044,2.24045 34.03364,21.18136 l 0.7301,6.16451 -17.54035,0 c -19.13129,0 -19.85156,0.28634 -18.33012,7.28682 2.54445,11.70773 7.69746,19.40499 14.80911,22.12095 6.74059,2.57425 10.82107,1.41508 17.14991,-4.87188 4.21555,-4.18768 3.80485,-2.67675 -1.06077,3.90292 -4.69748,6.35219 -8.7527,7.81119 -21.71097,7.81119 l -11.45912,0 z M 785.2799,90.8273 c 0,-9.01052 -3.7354,-17.30624 -8.30962,-18.45429 -6.98208,-1.7524 -14.10975,8.1227 -14.16293,19.62214 l -0.0274,5.9375 11.25,0 11.25,0 0,-7.10535 z m 30,43.35535 c 2.3481,-2.34808 2.5,-4.16666 2.5,-29.92623 0,-16.9358 -0.4781,-27.72172 -1.25,-28.19877 -3.2724,-2.02243 -0.4298,-3.125 8.05644,-3.125 l 9.3065,0 0.381,5.83979 c 0.4371,6.69952 2.3998,8.08297 5.6336,3.97096 5.3301,-6.77754 10.698,-11.00856 14.9876,-11.81328 5.9354,-1.11348 8.4221,0.60273 8.8946,6.1387 0.766,8.97329 -4.6621,12.37519 -11.3509,7.11383 -3.9398,-3.09908 -8.629,-3.20984 -11.2925,-0.26675 -4.5329,5.00884 -6.178,11.9391 -6.8312,28.7786 -0.6075,15.66039 -0.4859,16.85257 2.0721,20.3125 l 2.7175,3.67565 -13.1624,0 c -13.16234,0 -13.16234,0 -10.66234,-2.5 z m 65.58704,-2.83399 c -6.5947,-6.59466 -8.7488,-13.24332 -8.599,-26.54101 0.1766,-15.67864 6.2431,-26.84578 17.3869,-32.00518 7.3398,-3.39818 15.4854,-3.07611 21.2568,0.84048 7.9906,5.42259 10.2706,9.43732 12.552,22.1022 l 0.8444,4.6875 -17.6783,0 c -20.2673,0 -20.127,-0.0825 -17.7206,10.41979 2.9274,12.77586 12.8212,22.083 21.4584,20.18596 2.1164,-0.46485 5.8951,-2.61943 8.3972,-4.78796 l 4.5491,-3.94279 -3.7045,5.22125 c -5.6254,7.92865 -8.553,9.15375 -21.8743,9.15375 l -11.5341,0 z m 28.5984,-42.42532 c -0.2825,-12.49532 -5.6703,-18.99053 -13.3355,-16.07623 -3.9921,1.5178 -6.9723,7.0749 -8.3007,15.47808 -1.5188,9.60777 -1.3464,9.75362 11.0398,9.34141 l 10.7859,-0.35895 z m 28.4885,45.3694 c 2.936,-2.37779 2.951,-2.52667 2.951,-29.31278 0,-19.87177 -0.4092,-27.33201 -1.5625,-28.48509 -2.8133,-2.8128 -1.6839,-3.35938 7.802,-3.77597 6.9457,-0.30503 9.5287,0.0188 10,1.25349 0.3495,0.9156 0.6355,14.37131 0.6355,29.90157 0,24.52051 0.2723,28.53769 2.0687,30.52276 1.992,2.20112 1.5695,2.28593 -11.3884,2.28593 -13.4463,0 -13.4548,-0.002 -10.5063,-2.38991 z m 73.57696,-11.67259 10e-4,-14.0625 3.6007,7.5 c 4.017,8.36707 11.0389,15.78291 17.6473,18.63739 3.7244,1.60873 4.5602,2.14703 2.0428,2.18868 -1.6265,0.0269 -6.263,-1.15318 -9.5394,-2.31687 -5.5966,-1.98774 -6.1527,-1.98774 -9.1863,0 -1.776,1.16369 -3.5302,2.1158 -3.8981,2.1158 -0.368,0 -0.6685,-6.32813 -0.668,-14.0625 z m 143.9646,13.21949 c 4.1305,-1.09255 4.7844,-7.48338 4.7844,-46.76214 0,-37.64511 -0.5802,-44.14883 -4.1407,-46.41278 -0.8164,-0.51908 3.4376,-0.95241 9.4532,-0.96293 l 10.9375,-0.0191 0,18.75 c 0,17.39165 0.1671,18.75 2.3063,18.75 1.2685,0 3.3778,-1.20264 4.6875,-2.67253 5.5813,-6.26412 16.9133,-7.91598 23.2672,-3.39165 6.379,4.54225 7.239,8.53483 7.239,33.6062 0,21.99679 0.6769,26.6157 4.2496,29.00134 0.7565,0.5051 -4.779,0.92698 -12.301,0.9375 -12.1087,0.017 -13.3982,-0.184 -11.25,-1.75291 2.237,-1.63371 2.4563,-3.71176 2.8094,-26.61682 0.3662,-23.75724 0.2665,-24.99287 -2.2782,-28.22795 -3.6578,-4.65014 -7.69,-4.31605 -13.7262,1.13727 l -5.0036,4.52045 0,22.97955 c 0,21.31289 0.1814,23.16088 2.5,25.47955 2.5,2.5 2.5,2.5 -11.5625,2.355 -7.7344,-0.0797 -13.1217,-0.39385 -11.9719,-0.69801 z m 223.7084,-1.54425 c 2.9039,-2.34917 2.9571,-2.79875 3.3354,-28.16453 0.3106,-20.83841 0.03,-26.48819 -1.4668,-29.48774 l -1.851,-3.71047 9.9042,0 9.9042,0 0,29.375 c 0,27.70834 0.1419,29.51685 2.5,31.875 2.5,2.5 2.5,2.5 -11.3885,2.5 -13.8666,0 -13.8839,-0.004 -10.9375,-2.38726 z m 184.5479,0.44138 c 2.7301,-1.91227 2.7781,-2.42916 2.7781,-29.92623 0,-17.3052 -0.4769,-28.27509 -1.25,-28.75289 -3.3394,-2.06384 -0.3331,-3.125 8.8531,-3.125 l 10.1032,0 -0.4157,5.9027 c -0.5621,7.98377 2.1703,8.45276 7.2512,1.24457 4.0161,-5.69778 10.5208,-9.64727 15.8887,-9.64727 3.5331,0 7.0695,4.06436 7.0695,8.125 0,3.88774 -3.5344,8.125 -6.7772,8.125 -1.5872,0 -4.3158,-1.125 -6.0639,-2.5 -4.3185,-3.39698 -7.3456,-3.14199 -11.1299,0.9375 -4.9871,5.37606 -6.029,10.52636 -6.029,29.80315 0,17.04684 0.1276,17.95697 2.7781,19.81347 2.5837,1.80965 1.7767,1.94588 -11.5281,1.94588 -13.3047,0 -14.1117,-0.13623 -11.5281,-1.94588 z m -928.19366,-78.75 c -2.06423,-1.44583 -2.77814,-3.20003 -2.77814,-6.82631 0,-10.89355 12.16829,-13.74912 17.32607,-4.06596 4.44334,8.34186 -6.49582,16.53219 -14.54793,10.89227 z m 307.4999,0 c -3.8423,-2.69127 -3.8661,-10.6931 -0.043,-14.25542 5.8594,-5.4588 14.7643,-1.3122 14.7643,6.875 0,7.96172 -8.0967,12.02082 -14.7218,7.38042 z m 441.18976,-0.94718 c -8.3873,-8.9279 4.3045,-21.44822 12.964,-12.78875 1.6875,1.6875 3.0681,4.52556 3.0681,6.30681 0,4.35726 -5.2052,9.375 -9.7252,9.375 -2.1353,0 -4.6899,-1.17183 -6.3069,-2.89306 z"
     id="path4768-0"
     inkscape:connector-curvature="0"
     sodipodi:nodetypes="ssssssssccccsssssscscssssscscccscsssccscsssscscsssccccccssssscccscsscssccscccscscscsssssccccsccccsscscsscscssssssscccscsccsscssssssssscsssssssssssssccccsssssssscssscssscscssssssssscsscccsssscsssssssscsssssscssscsssssssscscssscssscssccssssscssscsssscsssssssscsssssscscsscccccsssscssscsssscssssssscsssccsscssssscssssssscssscssssssscscscssssscscssscscscccsccccssscsssscccssscsscssssssccsccsssss" />
</svg>
